<?xml version="1.0" encoding="UTF-8"?>
<svg id="uuid-c9fb022c-9a65-49d6-88fb-ea20f8087e00" data-name="Layer 2" xmlns="http://www.w3.org/2000/svg" viewBox="0 0 684.256167136156364 237.631609833604671">
  <g id="uuid-bf0eb72f-1b41-4973-96bc-e1fb12b8a96e" data-name="Layer 1">
    <g>
      <path d="m626.866315259057046,169.443309509368191c-1.016175471344468,0-1.730449580625645-.000160908699399-2.444723689906823.000026818117476-29.794266970103308.007374981963949-59.588587697571711.015339962483267-89.38285466767411.021213129941316-2.638518990875127.000536362324056-5.278489430608715-.066723473193633-7.915073156340441.002091813063089-1.483165701443795.038698541728081-2.201041554183575-.514639650549725-2.196955994440941-2.013933256788732.018815077764884-6.881904079558808-.037200096605375-13.764961338114517.092785212060335-20.644639514024675.021556703379247-1.142183570455018.630520134548533-2.408937290816539,1.30775541931871-3.383024908711377,12.411661712443674-17.852954068297549,24.886165784619152-35.662368924886323,37.325136238505365-53.496456448410754,17.967539146654417-25.760356094568124,35.933519329722913-51.521919004368101,53.84289300740511-77.322542500462077,1.383607061389739-1.993310125408243,2.847312596690244-2.869390937517892,5.388799543668028-2.828520128374294,10.638152482420992.171092877048068,21.280605554046815.080588439284838,31.921445904720713.090812846099652,3.030571454109122.002909765611548,3.045462244225746.010472474388735,3.046752420986195,3.144310151570608.01650351106673,40.270753791557581.028330131373878,80.541507583109706.042145774190431,120.812261374660011.000537573649126,1.610803333547665-.014460731194958,3.22211621130009.019137621955451,4.832329546290566.058219226335495,2.787796818869538.279269511379425,3.012639905387914,3.033581866550776,3.018030346749583,6.971577642528246.013650421165949,13.943907888167814.062593483293313,20.9143028686658-.025906300283168,1.773401715291584-.02250039952014,2.418973912052934.401520836272539,2.394030494674553,2.2942630257985-.102407780400426,7.759982841327655-.086979416631948,15.522513403700941-.00854742104093,23.283032607347195.017578658367711,1.739154837847309-.546658645087518,2.285278956862385-2.27194751866864,2.267766726959962-7.261652384283479-.073615729063022-14.524756217421782.003352264529894-21.786677388529824-.054548048421566-1.820278137608511-.014535418997184-2.386128162014757.66042293040482-2.374355299072704,2.46938532481181.08203373905144,12.593197385453095.027039954616157,25.187333404976016.125738476829611,37.780289427380922.01542836376575,1.972740630253611-.614715469228031,2.472818043686857-2.51960769940797,2.452060821724444-8.511672393549816-.092763864060544-17.025011265413923-.036794455474592-25.537705048900534-.040602627981571-2.967299035457472-.00134090580832-3.021163915227589-.061815757919248-3.021056400496491-3.138121871250405.000376301553842-12.15450664007767.003171684536028-24.309040098274636.004945677583237-36.463546738350487.000161272094374-.933055900051841.000053757365094-1.866111800103681.000053757365094-3.056031617456028Zm1.323076268354271-126.280421638766711c-.232984420081266-.075667314957172-.465968840162532-.151348038973083-.699007017608892-.227015353932075-21.925747691890138,32.713448863674785-43.851549141141732,65.426884318287193-66.076779113664088,98.587122998435007,1.410539501273888.090377051716132,2.049445784770796.167076864148839,2.688298310900791.167023227915706,20.388609595944217-.001609086975805,40.77716543452425-.008501342847012,61.165775030470286-.02099858501424,2.916068266573348-.001796813785404,2.922142848822659-.016841776994625,2.922196606187754-2.926473297922712.001021389935886-31.099427356179149,0-62.198868121415217-.00048381628585-93.298295477592546v-2.28136351188914Z" style="fill: #8B79CF;"/>
      <path d="m101.932983527418401,169.443738599229619c-1.010813174182658,0-1.724724421248538-.000107272469904-2.438649107657511.000053636231314-29.867370266887519.006811801522417-59.734743893608538.014213601605661-89.602114160496058.01952358861854-2.565042752370573.000455907973446-5.131452957715737-.065489839846123-7.694609162559573.000563180443351C.722075581264107,169.501907093339469-.004216658940095,168.961790232366184.000018413474209,167.453029831094682c.019314013308758-6.881662716510618-.040738003194747-13.764505430135614.086789585939187-20.643995879234353.021170322319449-1.142049479871275.629497064695897-2.409098199515938,1.306582836792586-3.383024908711377,12.411478601423369-17.852819977715626,24.885223350815977-35.662476197348951,37.324764976703591-53.495893267967404,17.968295109601058-25.759444278621231,35.93572002185465-51.519545601080608,53.847055843362796-77.318385692447919,1.38109390457339-1.989273998911813,2.836500646643799-2.87660501078426,5.383423807162217-2.835392270659213,10.711437210313306.173318780696718,21.427121252461802.082432184775826,32.141259770369288.092556023653742,2.81003186403268.002654993508258,2.826723525879061.009741680722072,2.827946505933141,2.92159240077126.016812615915114,40.197124653428546.02849140347098,80.394262715917648.042320485626988,120.591387369346194.000604770356404,1.757230248189444-.01472951802134,3.514943222471629.020387480692079,5.271583472103885.055786705569517,2.791202719634384.27818092473899,3.01631398731115,3.029429110100864,3.021758064905953,6.971497006482423.013757693628577,13.943719737391802.061976666620467,20.914101278548515-.025611301005483,1.767905024717948-.022232218356294,2.423462652032867.391759041964178,2.398250447830833,2.290159854013837-.103066308123744,7.760009659445132-.086750947833025,15.522647494282864-.008816207867312,23.283247152279728.017417386273337,1.733818032720592-.536364109682836,2.289435764878363-2.267243749228328,2.271708990048865-7.261571748235838-.074527545020828-14.524621824009046.002681811620278-21.786502677095086-.054816229587232-1.814915840443973-.014347692183946-2.391382944446377.65015159188988-2.37951600611359,2.464450791423587.082423479948375,12.593063294872991.027685042995472,25.187092041927826.125563765391234,37.779940791868285.015253652330102,1.965177921478244-.60146427874588,2.478798483611172-2.513801903982312,2.457692626136122-8.511564878817808-.093863406820674-17.024769357272817-.0372235453342-25.537382504709967-.040951263492389-2.973319860341689-.001314087694482-3.026781559874507-.060984396317508-3.026674045145228-3.132543703073679.000416619580392-12.154399367611404.003171684537847-24.308798735226446.005012874290514-36.46319810283785.000147832754919-.932599992078394.000013439342183-1.865173166037494.000013439342183-3.061556149399621Zm-65.441367058897413-27.939569401718472c1.389688363311507.105261106220496,1.96183135926276.186466362181818,2.533967635544286.186412725948685,20.461887604164986-.001716359438433,40.923855844376703-.038108543169074,61.385541858421675.020569495152813,2.160266592801236.00619498485139,2.899900739039367-.551058652399661,2.894632517267382-2.825932180156087-.072209580591334-31.172399450459125-.048421946559756-62.345013445839868-.054966905753645-93.517573804992935-.000161272096193-.749807711816175-.077934739967532-1.499588605518511-.119516061825379-2.249382908275948-.196577244609216-.05350214189275-.393167928558796-.107004283778224-.589745173168012-.160506425667336-21.905736512751901,32.683345528199425-43.811473025502892,65.366677647338292-66.049913870486307,98.546413097990808Z" style="fill: #8B79CF;"/>
      <path d="m293.17601919660865,221.271974127230351c-3.560269650527516-3.686713256956864-6.750876780359249-7.216835533215999-10.180757941983757-10.49792478211566-8.682136998089845-8.305436507434933-17.47146618206807-16.499309651329895-26.218380805032211-24.737325414549559-2.037457892367456-1.9188898528555-2.004531506278909-1.885286753211403-.103590442431596-3.849767403666192,3.872519305360584-4.002013849534706,7.673272528390953-8.073593892580902,11.572643637588044-12.049084625155956,1.183925328950863-1.207002957395162,1.266012825366488-2.392631876151427.491100408320563-3.745337659049255-.945403900268502-1.650333236877486-2.067158836550334-3.212890779315785-2.879271350204363-4.923698868302381-1.628068678907766-3.429661612844939-3.115104910634727-6.926770788018985-4.609129599814878-10.417872705160335-.177506819361042-.414715349457765-.231237305718423-1.088976427839953-.012202921864628-1.434688764227758,3.00662254798408-4.745465667803728,6.067083097055729-9.457006418568199,9.135042798548966-14.163478545366161.136516828517415-.209449487798338.470565094872654-.290681561871679.445621677496092-.276146142872676,2.645131146775384,6.660305985107698,5.03824776624424,13.385458175267559,7.980952807196445,19.862006427931192,2.139247463067477,4.708268940585185,4.892242762795831,9.156831243552006,7.607043454660015,13.577261342585189.970132288188324,1.579613864365456.907961895522021,2.53538470886815-.327624261233723,3.775132586184554-3.155826114650154,3.166388165765966-6.181263740398208,6.463514648174169-9.374316830339012,9.590962909167501-1.203949947427645,1.179219388972342-1.13129686857792,1.823041905425271.076684881229085,2.957233677243494,4.861063491073764,4.564228838285999,9.672589570262971,9.185580264154851,14.362516489731206,13.923670949989173,1.257223496182633,1.27013280301253,2.092962371772956,1.330312655845773,3.225737567886426.115103354883104,2.796404371997596-3.000008572640581,5.578670556986253-6.013640748329635,8.408915190276275-8.981628490186267,2.636314938908072-2.764652784560894,2.648974798375093-2.72142198119036,5.873852248420008-.928148184779275,11.006739855817614,6.120618213992202,22.581211243816142,10.7392878282335,34.967956417564892,13.259198484032822,4.410442378627522.897200078647074,3.717160520395737.575838591801585,3.734604785350712,4.620975972244196.018331261477215,4.246943705109516.085931148014424,8.496327858792938-.03222754034141,12.740053389954483-.054483089467794,1.956971577907098.648878274711024,2.493414356955327,2.551781482383376,2.462090797193014,6.383203282171053-.105180651871706,12.769954550433795-.094426587258567,19.153668527571426-.006329075429676,1.79847952608452.024833575635057,2.471736765838614-.515336921574999,2.43442915450305-2.35656150981049-.100929452863056-4.977361918887254-.010509564864151-9.958397919701383-.086173056158259-14.936618018311492-.020051497160239-1.320416770950033.29238630844884-1.93884253133001,1.720101287854959-2.1983346240213,9.112034646311258-1.656313676798163,17.913163571916812-4.347350732294217,26.277782693401605-8.344027776698567,3.083092399751877-1.473145942911287,6.061922390010295-3.163438172974566,9.361818242967274-4.898489839037211.224383241676151,1.429432413444374.439896518119895,2.545414684334901.568672286072797,3.671266022005511.372565418407248,3.258213395749408.636272172608187,6.530720847456905,1.092564687064623,9.776678364089094.2322586956534,1.652317777476128-.762118164167987,2.288845766317536-1.923868580038288,2.773985489013285-6.268726973318735,2.618038143105878-12.50455443923147,5.330127419842029-18.865367778864311,7.707070697995732-3.63509990266175,1.358364405423345-3.825508489631829,1.245299227373835-3.815993436020108,5.219985416466443.012417951324096,5.198718650295632-.039377269890792,10.397893208561072.015508999813392,15.596021860297697.016611025797829,1.571836610657556-.472097179777847,2.186936924623296-2.147902398840415,2.181787846306179-16.292459652020625-.050337604170636-32.585134333501628-.043901256272875-48.877674621568076-.005739076874306-1.643631436086253.003834990620817-2.15591224623131-.612150321179797-2.135618840928146-2.211287774163793.072491806753533-5.710649671107603-.02150294601779-11.4235252458584.064186293855528-17.133799463337709.026314230188291-1.753422075684284-.648448215789358-2.593928656608114-2.270818614002565-3.20996760464368-6.830733346126181-2.593740929794876-13.621094911107321-5.294620233951719-20.401565120920168-8.017490393416665-1.288994098919829-.517589643339306-2.160051563339948-.32085194263891-3.092795604143248.705531001913187-3.499066890427457,3.850411038454695-7.067588296488793,7.638094503037792-10.612322068519461,11.447205642492918-.893528043006881.960142197447567-1.795388477594315,1.912587595537843-3.155584206508138,3.360524509187599Z" style="fill: #8B79CF;"/>
      <path d="m456.985838246916501,49.540396820009846c-2.278344645108518,2.388340977549888-4.248229529622222,4.549693419286996-6.331058638082141,6.596639777164455-1.058751304454745,1.040529500862249-1.157127282477632,1.9064864740958-.496180479313807,3.267626554550588,2.805381851958373,5.777654734518364,5.509861129734418,11.60549957357216,8.15687378428629,17.457467308177002.800769709630913,1.770263852678909,1.722493490600755,2.464075337798931,3.859079964100602,2.237596346192731,5.530288928452137-.586190384667134,11.103422476840933-.760856775708817,16.654784292386466-1.163503972860781,1.869788670809612-.135605804742227,1.764746779522284,1.263039411265709,1.866186927351009,2.323132727922712.375656466896544,3.926990169366036.639228827686566,7.864814857692181.931507621407036,11.79955546265046.882104602935215,11.875370277246475,1.743727649791253,23.752282596175064,2.652334633689861,35.625614696584307.127619984603371,1.667630921849195.021664218112164,2.716487447805775-2.150617145774959,2.827246267854207-5.261985919540166.268342071049119-10.507737114835436.838682949022768-15.764401055236704,1.229610629383387-3.355534725772486.249569389685348-3.453319372780243.331096463040012-4.180817793862843,3.528781370447177-1.787109843375219,7.855026245264526-4.173614306945638,15.513797515921397-7.795678048585614,22.741092114467392-.62170392668304,1.240552420809763-.633423032261817,2.180098304987041.588105573535358,3.024547148999773.591707316989414.409029908818411,1.075792389171511.973041711358746,1.799043978415284,1.64344098100446-.580310755603023.255978919461995-.984189839145984.561517717727838-1.414356274193779.604426703706849-5.167480471797717.515283285341866-10.336358635089709,1.02281613508967-15.511741439548132,1.448982820182209-.908929528090084.074822544296694-2.062132522921274.04559079759747-2.713456757742279-.447299360686884-.601329885331324-.454996160042356-1.100036960803664-1.71665443832353-.901564769077595-2.412209100997643.412587776677356-1.446140099862532,1.245773177426599-2.794715892863678,2.029609317070026-4.110117676078517,6.933786214905922-11.636219725720366,10.55515111080058-24.318480075189655,11.964884251601688-37.692057824962831.126544837301481-1.200419109860377.545314710961065-1.614343324892616,1.746899334326372-1.678452031748748,4.605877279229389-.245774626238926,9.205948763035849-.597400357255538,13.808761872460309-.901866430875089,3.004445374699571-.198749059418333,3.216034363494146-.453387073070189,2.9908985187094-3.492643958823464-.453335859379877-6.120510941522298-.940538858733817-12.239225069261011-1.308561779794218-18.364978952511592-.125254660542851-2.086181261931415-.984458625970547-2.777123208608828-3.057665166090374-2.586969355445035-4.447185537631412.407957184168481-8.913347425124812.605137383783585-13.366715059737544.953249941572722-1.409195567148345.110155412437962-2.152821197741105-.349399827366142-2.48719200828873-1.771323168270101-2.978856868940056-12.668154020326256-8.927324340036648-23.918662189291354-16.668411784427008-34.276971858293109-1.042812245717869-1.395427042063602-1.285526748873053-2.351063795986192.269055612025113-3.408689845948174.536606017825761-.36503478913437,1.045957051575897-.848712924493157,1.401696414726757-1.387381607190036,3.426010631339523-5.187951176627394,8.397975566490459-5.254889194746283,13.805643945285738-4.409099444923413,2.662871077238378.416498754188069,5.410087460223622.289716109684377,8.117684665174238.435284844608759.409899908428088.022031082489775.811951241559655.188732493008501,1.505367493204176.359268894146226Z" style="fill: #8B79CF;"/>
      <path d="m411.172655976798524,41.582026963833414c-4.598163097347424,2.043513638996956-8.350104632923831,4.782783076541818-13.360102903838197,3.469070834649756-3.879238975991029-1.017211148799106-7.809574327449809-1.854928645636392-11.743027606082251-2.644239442666731-1.486202992567996-.298244270648865-3.044494611654045-.311680146885919-4.57069308381142-.320597170533802-2.050386538659041-.01200110701393-2.820326399439182-1.137919489972774-2.570139622544957-2.954498229388264.586761639407996-4.260379581342931,1.172609403609385-8.528375507694363,2.009100882309212-12.743848153404542.41578633989775-2.095406693910263-.415141251518435-2.861251639238617-2.219641602487172-3.147870256501847-6.355894540729423-1.009567985669491-12.713186772951303-2.010259174865496-19.07109721487268-3.007222645908769-1.850839199629263-.290239062953333-2.938942025397409.027917659001105-3.179452476585539,2.359457866365119-.448578332571742,4.348517320349856-1.381806189659073,8.645423176003533-2.029931861259684,12.976240539639548-.233521993732211,1.560546183722181-1.079662919457405,2.093153972147775-2.539524803155473,2.094870331589846-6.170592903437864.007240891382025-12.265522315584349.612364866114149-18.273364796365968,2.115520281087811-1.044586238766897.261342542715283-2.59723333452439.249019618304374-3.344890767495599-.347951649089737-3.981216697467971-3.178711090173238-7.780921651882636-6.583686627021962-11.6434152086631-9.91036667352455.094586083786453-.224212860786793.189199046258182-.448439130628685.283812008728091-.672651991406383,3.561371676511044-.929328181899109,7.097719299593336-1.973236765406909,10.691345395127428-2.754931217428748,3.424209759612495-.744846360312295,6.903870241261757-1.243636504168535,10.368209873876367-1.793689477210137,1.323990143561787-.210213804111845,1.923868580037379-.709580537466536,2.112368780550241-2.203443475171298.711962542583933-5.643027791013083,1.693034454557164-11.251741802312608,2.4630280727024-16.88830642731773.206320767022589-1.510302442955435.916186772370565-1.519628442874819,2.109627154932241-1.315891213836949,6.697683867650994,1.143376976626314,13.398700691936028,2.27052899292903,20.110415231865773,3.328450042172335,9.382702979285568,1.478905133373701,18.777286336247016,2.882585450706756,28.163483544261908,4.339660637462657,2.445637565109791.379650662483982,2.556942189425172.741373414261034,2.127098298569763,3.188633793182817-.934249247024127,5.31911858312742-1.822320917479374,10.649903046823965-2.514366356316714,16.003590181782783-.095392444261961.73808819502301.847054800929072,1.955335672815636,1.625434568020864,2.403023896187733,4.37273158705375,2.514909077121047,8.843919788177118,4.859321980278764,13.276375807789918,7.271262900116199.379661390592446.206579949357547.721988291164052.481452231710136,1.719348684744546,1.155726719152881Z" style="fill: #8B79CF;"/>
      <path d="m185.660254288075521,185.624395393449959c5.24997114845155-.751389980678141,10.227526849565947-1.465127326157017,15.205566366966195-2.175431952760846,1.417554837411444-.202289050759646,2.416931132180252.272954787042181,3.419855413043479,1.407817011762745,1.394076308231888,1.577495233184891,3.101880598835123,2.89289701639791,4.74930192915599,4.229780110717911,1.738338473944168,1.410632913966765,2.15831788831747,2.797209977672537.894737583718779,4.888003955593376-2.267069037791771,3.751237644621142-4.242101190005997,7.677731678835698-6.356526189768374,11.521518642581213-.829946519506848,1.508733583154026-.86795297658955,2.530074721853453.981407895504162,3.503116433212199,5.813039229217793,3.058418429802259,11.560588548478336,6.249720625546615,17.230028416335699,9.565646607437884,1.77098263386506,1.035796103349639,2.478214528324315.01828995527103,3.128786160035816-1.085221891571564,1.224592775602105-2.077277647336814,2.204562661592718-4.296744946957915,3.391337130889951-6.397971172094913,1.528429402806069-2.706108836817293,3.160153582535713-5.354129633875345,5.057842325800266-8.549990909381449,4.091768718673848,5.781369043617815,5.46188268143942,12.135894867413299,9.044757303964616,18.178472363162655-2.589734182100074-1.122954981112343-3.112685829206384.329514194179865-3.823411952394963,1.63113146564865-2.523639501784601,4.621646425146537-5.120819078943896,9.203441129568091-7.628949580915105,13.833320716395974-.675380655675326,1.246720587538221-1.633202507269743,1.773937934603964-2.877577993207524,1.263937818162958-2.894081504273345-1.18608482673153-5.840710832872901-2.315288428930216-8.567606931874252-3.824477920057689-11.338691584935077-6.275305108436442-22.599273718467884-12.691003055362671-33.899824452907524-19.035123450057654-2.323111090848215-1.30421862874573-2.61529580917977-1.928142102957281-1.275984816581513-4.299507212928802,2.3381093956923-4.139858966982501,4.777188562270567-8.223265799289948,7.199522309639178-12.315281246908853,1.973540385331944-3.333867301653299,1.912727366133367-3.438538409314788-.890087571643562-6.034719787690847-1.956996556243212-1.81269011256154-4.142085612353185-3.503625977420597-4.983173345761315-6.30501958122295Z" style="fill: #8B79CF;"/>
      <path d="m460.501623677874704,186.714310455359737c3.114970517221082,5.116494305919332,5.810848616592921,9.631350992216539,8.602898642020591,14.086161916264246,1.056224708298942,1.685250424212427,1.221743635256644,3.303080104209585.639820158700786,5.201722279307432-1.089984333543725,3.556511302636864-1.99950519264803,7.168482469649462-2.964181108282901,10.76267322559579-.392321250059467,1.461426426116304-1.059611422295347,1.890730830808025-2.690126061314004,1.441473747638156-11.974775606768162-3.299540112873729-23.98771894271249-6.461315562642994-35.977573490373288-9.706897625650527-3.73334148727281-1.010560255970631-7.414726481232719-2.214693674926821-11.156722904276648-3.189451745724-1.501308812144998-.391115407172038-1.911585022126019-1.089727335100179-1.494562262832005-2.503390696199858,1.507302758346668-5.109441141346906,2.914133001432674-10.24974993448086,4.507555058572507-15.331943869730821.94158712735225-3.003146292241581.826922667722101-3.743755390190927-1.791974884912634-5.517827415373176-1.030931868048356-.698397382995608-2.099843314495956-1.34077172117577-3.1423867733929-2.022407781523725-1.259992000482271-.823825712628604-1.346057541909431-1.736553480575822-.020750342905558-2.521466106543812,3.652114108697788-2.163041983059884,7.324951681618586-4.292480866472033,11.028538467340695-6.365977159424801.412399625901344-.230823526437234,1.164895221725601-.196067247794417,1.608151575159354.022098127778008,2.952730789533234,1.453193264434958,5.849016345771815,3.020283068512072,8.796129490658132,4.485329940322117,1.296896431581445.644734332407097,1.259158761323306,1.486099093051962.87812655792186,2.709836554975482-1.38801516532294,4.457760916835468-2.696818853260083,8.941133134672782-3.965250760052186,13.43456214609796-.802006129027177,2.841138052064707-.093107756249083,3.6718560205627,2.778073110517653,4.071124135074569,2.017406395205398.280571132048863,4.004923695451907.838092950463761,5.974862337329796,1.383037072359002,3.725492911976289,1.030459298217465,7.421204243721149,2.167654699051127,11.143794257984155,3.208868061879912,2.600727563251894.727441402877957,3.308873332919575.304063801871962,4.019868242933626-2.435406771543057.659549111670458-2.541204240091247,1.171856800498972-5.120543841469043,1.835975288197915-7.660460811977828.267281618977904-1.022252954653595.766257481275716-1.984165147772728,1.389735401005055-3.551657223601069Z" style="fill: #8B79CF;"/>
      <path d="m478.123019151037624,47.200408906030134h5.859767818780711c-.399255950150291-3.863779869401696-.81437032298436-7.526946820304147-1.146698353661122-11.197596025636813-.328618772487062-3.630636575908284-.776256351172378-7.268648133782335-.779374278343312-10.903763335103577-.001881507776488-2.18656147099864-1.060525297502863-2.789124315626395-2.749259162857015-2.65467168988107-3.998526569012029.318331039710756-8.008987273064122.666416779382416-11.962465170172436,1.317520414397222-3.639642400008597.599398306916555-3.884883499319585.404014921083217-4.83988308924927-3.237308674146334-1.724912572026369-6.577196642892886-3.917783006721947-13.005163877998712-7.507484814608688-18.86136217044259-.214599401238956-.350090393862047-.367324075316901-.73794069538053-.791362170748471-1.602717671497885,2.077883430877591,0,3.811182151848698-.15616859536749,5.505668055263413.03326787318656,3.291187159821675.367951259278925,6.624251307008308.691102855382269,9.806042228974547,1.535424313342446,1.184167237092879.314234572455462,2.353927500354075,1.879386767639517,2.90542430829646,3.145154922232905,1.635245287139696,3.752766277242699,1.516118966212161,3.840682766793179,5.502173826536819,3.551771200589428,4.665816741248818-.338183150252007,9.329429430531491-.714568707080616,13.988257714324391-1.137068014781107,2.074335444785902-.188115676330199,2.884082634377592.404879805329983,3.050999252825022,2.71835130688487.666698841223479,9.241395468567134,1.620730798579643,18.462147692162034,2.466871724303928,27.690677169468472.59939462019247,6.537358331226642,1.200133174508665,13.074569162810803,1.791732976769708,19.612624765059081.160250705183898,1.77065271536776-1.915321158995539,2.868680257441156-4.45309884778635,2.952232098570676-3.838490893289418.126353554642264-6.635486596301234-1.56717025843318-9.110421925361152-4.223759443622839-2.524338347531739-2.709648828162244-5.12479712395816-5.348685556278724-7.691926334060554-8.018630163354828.051660827803971-.240048958421539.103321655607033-.480097916843079.15503624077337-.720146875264618Z" style="fill: #8B79CF;"/>
      <path d="m266.198638154581204,97.654832793657988c-3.024631265273456-5.180576194657988-5.733491768301974-9.757892273668404-8.349002606939393-14.387704815208053-.292036885578455-.516959417605904-.310663812564599-1.478710702029275-.020212769255522-1.985626735104233,2.104762113395736-3.673666243408661,4.197025639421554-7.366520848983782,6.552189559172803-10.8805522555067,1.295444982723893-1.932902318585548.949596974742235-3.17893904416087-.499916616186056-4.778974904036659-3.386418331988352-3.738123585781068-6.63543283893614-7.60293595265648-9.863616366931637-11.479856699008451-1.749399051801447-2.100931225861132-1.520715220924103-2.526722457325377.549185241245141-4.197558144065624,5.068298133301141-4.091130449782213,10.084505379878465-8.249333008267058,15.031661291064665-12.485200831370094,1.436934367508002-1.230334718518861,2.707812234410085-1.405229063548177,4.363055261344925-.591647871324312,3.082447311371652,1.515102885765373,6.237386429500475,2.882867040925703,9.330692728612121,4.376837251093093.752683746600269.36354638368357,1.383177002468983.978981924106847,2.276812560205144,1.629187152226223-.822487685105443.776840372984225-1.408147298530821,1.409265190040969-2.072642087785425,1.944125700232689-3.190123313546792,2.567633493639732-6.396588866065031,5.115139991046817-9.607543158565022,7.656853775346462-1.460883273635773,1.156370353941384-.6176721243055,2.244756783225967.174630800331215,3.187494023241015,2.49466428202868,2.96833637736745,5.074318958185358,5.865417019896995,7.603361075158318,8.805259148766709.666860113316034.775164240718368,1.469457573355612,1.525360815217937,1.834900140896934,2.436653813943849.262873515044703.655434760787102.199305430885033,1.800702414608168-.222958671502056,2.316307517345194-6.388605897356683,7.800692741773673-11.789662120254434,16.186436098272679-15.614068583901826,25.542780717552887-.320904590606006.785033307492995-.765693028943133,1.519661965523483-1.466527796964328,2.891623155876005Z" style="fill: #8B79CF;"/>
    </g>
  </g>
</svg>