<svg width="282" height="10" viewBox="0 0 282 10" fill="none" xmlns="http://www.w3.org/2000/svg">
<path d="M1 1.21048L1.70175 1.40262L2.40351 1.65149L3.10526 1.95318L3.80702 2.30291L4.50877 2.69518L5.21053 3.1238L5.91228 3.582L6.61404 4.06257L7.31579 4.55792L8.01754 5.06024L8.7193 5.56162L9.42105 6.05413L10.1228 6.53003L10.8246 6.98179L11.5263 7.4023L12.2281 7.78492L12.9298 8.12362L13.6316 8.41307L14.3333 8.64868L15.0351 8.82676L15.7368 8.94448L16.4386 9L17.1404 8.99243L17.8421 8.9219L18.5439 8.78952L19.2456 8.59738L19.9474 8.34851L20.6491 8.04682L21.3509 7.69709L22.0526 7.30482L22.7544 6.8762L23.4561 6.418L24.1579 5.93743L24.8596 5.44208L25.5614 4.93975L26.2632 4.43838L26.9649 3.94587L27.6667 3.46997L28.3684 3.01821L29.0702 2.5977L29.7719 2.21508L30.4737 1.87637L31.1754 1.58693L31.8772 1.35132L32.5789 1.17324L33.2807 1.05552L33.9825 1L34.6842 1.00757L35.386 1.0781L36.0877 1.21048L36.7895 1.40262L37.4912 1.65149L38.193 1.95318L38.8947 2.30291L39.5965 2.69518L40.2982 3.1238L41 3.582L41.7018 4.06257L42.4035 4.55792L43.1053 5.06024L43.807 5.56162L44.5088 6.05413L45.2105 6.53003L45.9123 6.98179L46.614 7.4023L47.3158 7.78492L48.0175 8.12362L48.7193 8.41307L49.4211 8.64868L50.1228 8.82676L50.8246 8.94448L51.5263 9L52.2281 8.99243L52.9298 8.9219L53.6316 8.78952L54.3333 8.59738L55.0351 8.34851L55.7368 8.04682L56.4386 7.69709L57.1404 7.30482L57.8421 6.8762L58.5439 6.418L59.2456 5.93743L59.9474 5.44208L60.6491 4.93975L61.3509 4.43838L62.0526 3.94587L62.7544 3.46997L63.4561 3.01821L64.1579 2.5977L64.8596 2.21508L65.5614 1.87637L66.2632 1.58693L66.9649 1.35132L67.6667 1.17324L68.3684 1.05552L69.0702 1L69.7719 1.00757L70.4737 1.0781L71.1754 1.21048L71.8772 1.40262L72.5789 1.65149L73.2807 1.95318L73.9825 2.30291L74.6842 2.69518L75.386 3.1238L76.0877 3.582L76.7895 4.06257L77.4912 4.55792L78.193 5.06024L78.8947 5.56162L79.5965 6.05413L80.2982 6.53003L81 6.98179L81.7018 7.4023L82.4035 7.78492L83.1053 8.12362L83.807 8.41307L84.5088 8.64868L85.2105 8.82676L85.9123 8.94448L86.614 9L87.3158 8.99243L88.0175 8.9219L88.7193 8.78952L89.4211 8.59738L90.1228 8.34851L90.8246 8.04682L91.5263 7.69709L92.2281 7.30482L92.9298 6.8762L93.6316 6.418L94.3333 5.93743L95.0351 5.44208L95.7368 4.93975L96.4386 4.43838L97.1404 3.94587L97.8421 3.46997L98.5439 3.01821L99.2456 2.5977L99.9474 2.21508L100.649 1.87637L101.351 1.58693L102.053 1.35132L102.754 1.17324L103.456 1.05552L104.158 1L104.86 1.00757L105.561 1.0781L106.263 1.21048L106.965 1.40262L107.667 1.65149L108.368 1.95318L109.07 2.30291L109.772 2.69518L110.474 3.1238L111.175 3.582L111.877 4.06257L112.579 4.55792L113.281 5.06024L113.982 5.56162L114.684 6.05413L115.386 6.53003L116.088 6.98179L116.789 7.4023L117.491 7.78492L118.193 8.12362L118.895 8.41307L119.596 8.64868L120.298 8.82676L121 8.94448L121.702 9L122.404 8.99243L123.105 8.9219L123.807 8.78952L124.509 8.59738L125.211 8.34851L125.912 8.04682L126.614 7.69709L127.316 7.30482L128.018 6.8762L128.719 6.418L129.421 5.93743L130.123 5.44208L130.825 4.93975L131.526 4.43838L132.228 3.94587L132.93 3.46997L133.632 3.01821L134.333 2.5977L135.035 2.21508L135.737 1.87637L136.439 1.58693L137.14 1.35132L137.842 1.17324L138.544 1.05552L139.246 1L139.947 1.00757L140.649 1.0781L141.351 1.21048L142.053 1.40262L142.754 1.65149L143.456 1.95318L144.158 2.30291L144.86 2.69518L145.561 3.1238L146.263 3.582L146.965 4.06257L147.667 4.55792L148.368 5.06024L149.07 5.56162L149.772 6.05413L150.474 6.53003L151.175 6.98179L151.877 7.4023L152.579 7.78492L153.281 8.12362L153.982 8.41307L154.684 8.64868L155.386 8.82676L156.088 8.94448L156.789 9L157.491 8.99243L158.193 8.9219L158.895 8.78952L159.596 8.59738L160.298 8.34851L161 8.04682L161.702 7.69709L162.404 7.30482L163.105 6.8762L163.807 6.418L164.509 5.93743L165.211 5.44208L165.912 4.93975L166.614 4.43838L167.316 3.94587L168.018 3.46997L168.719 3.01821L169.421 2.5977L170.123 2.21508L170.825 1.87637L171.526 1.58693L172.228 1.35132L172.93 1.17324L173.632 1.05552L174.333 1L175.035 1.00757L175.737 1.0781L176.439 1.21048L177.14 1.40262L177.842 1.65149L178.544 1.95318L179.246 2.30291L179.947 2.69518L180.649 3.1238L181.351 3.582L182.053 4.06257L182.754 4.55792L183.456 5.06024L184.158 5.56162L184.86 6.05413L185.561 6.53003L186.263 6.98179L186.965 7.4023L187.667 7.78492L188.368 8.12362L189.07 8.41307L189.772 8.64868L190.474 8.82676L191.175 8.94448L191.877 9L192.579 8.99243L193.281 8.9219L193.982 8.78952L194.684 8.59738L195.386 8.34851L196.088 8.04682L196.789 7.69709L197.491 7.30482L198.193 6.8762L198.895 6.418L199.596 5.93743L200.298 5.44208L201 4.93975L201.702 4.43838L202.404 3.94587L203.105 3.46997L203.807 3.01821L204.509 2.5977L205.211 2.21508L205.912 1.87637L206.614 1.58693L207.316 1.35132L208.018 1.17324L208.719 1.05552L209.421 1L210.123 1.00757L210.825 1.0781L211.526 1.21048L212.228 1.40262L212.93 1.65149L213.632 1.95318L214.333 2.30291L215.035 2.69518L215.737 3.1238L216.439 3.582L217.14 4.06257L217.842 4.55792L218.544 5.06024L219.246 5.56162L219.947 6.05413L220.649 6.53003L221.351 6.98179L222.053 7.4023L222.754 7.78492L223.456 8.12362L224.158 8.41307L224.86 8.64868L225.561 8.82676L226.263 8.94448L226.965 9L227.667 8.99243L228.368 8.9219L229.07 8.78952L229.772 8.59738L230.474 8.34851L231.175 8.04682L231.877 7.69709L232.579 7.30482L233.281 6.8762L233.982 6.418L234.684 5.93743L235.386 5.44208L236.088 4.93975L236.789 4.43838L237.491 3.94587L238.193 3.46997L238.895 3.01821L239.596 2.5977L240.298 2.21508L241 1.87637L241.702 1.58693L242.404 1.35132L243.105 1.17324L243.807 1.05552L244.509 1L245.211 1.00757L245.912 1.0781L246.614 1.21048L247.316 1.40262L248.018 1.65149L248.719 1.95318L249.421 2.30291L250.123 2.69518L250.825 3.1238L251.526 3.582L252.228 4.06257L252.93 4.55792L253.632 5.06024L254.333 5.56162L255.035 6.05413L255.737 6.53003L256.439 6.98179L257.14 7.4023L257.842 7.78492L258.544 8.12362L259.246 8.41307L259.947 8.64868L260.649 8.82676L261.351 8.94448L262.053 9L262.754 8.99243L263.456 8.9219L264.158 8.78952L264.86 8.59738L265.561 8.34851L266.263 8.04682L266.965 7.69709L267.667 7.30482L268.368 6.8762L269.07 6.418L269.772 5.93743L270.474 5.44208L271.175 4.93975L271.877 4.43838L272.579 3.94587L273.281 3.46997L273.982 3.01821L274.684 2.5977L275.386 2.21508L276.088 1.87637L276.789 1.58693L277.491 1.35132L278.193 1.17324L278.895 1.05552L279.596 1L280.298 1.00757L281 1.0781" stroke="#593113" stroke-width="2" stroke-miterlimit="10" stroke-linecap="round" stroke-linejoin="round"/>
</svg>
