<svg width="276" height="308" viewBox="0 0 276 308" fill="none" xmlns="http://www.w3.org/2000/svg">
<path d="M269.922 131.644L269.848 136.12C269.837 137.612 269.697 139.098 269.627 140.588C269.506 143.57 269.15 146.53 268.869 149.496C268.127 155.405 267.24 161.3 265.914 167.098L265.448 169.279L264.916 171.443L263.835 175.768L262.617 180.052L262.006 182.193L261.329 184.313L259.969 188.551L258.486 192.745C258.005 194.149 257.479 195.534 256.936 196.913L255.323 201.055C250.847 212.024 245.621 222.671 239.684 232.923C233.706 243.153 226.874 253.028 218.55 261.686C214.397 266.04 209.872 270.024 205.026 273.592C200.13 277.118 194.92 280.186 189.462 282.756C183.986 285.251 178.314 287.288 172.502 288.847C166.682 290.314 160.76 291.345 154.787 291.932C142.835 293.002 130.79 292.246 119.065 289.692C107.386 287.057 96.1263 282.824 85.6036 277.113C84.1773 276.421 82.856 275.544 81.4874 274.75L77.4162 272.306L73.49 269.636C72.1861 268.74 70.8521 267.884 69.6197 266.889C67.1226 264.945 64.5481 263.095 62.2006 260.968L58.6054 257.867L55.1833 254.576C50.645 250.162 46.3908 245.464 42.4463 240.512C41.4676 239.269 40.5499 237.978 39.5991 236.713L38.1851 234.806C37.7072 234.176 37.242 233.536 36.8188 232.866L34.2035 228.903C33.7715 228.241 33.3248 227.587 32.9046 226.917L31.7079 224.866C25.2255 213.978 20.1915 202.29 16.7333 190.099C13.3555 177.928 11.401 165.407 10.9091 152.786C10.6207 144.386 10.9222 135.977 11.8113 127.62C12.7893 119.276 14.328 111.006 16.417 102.868C20.7452 86.6463 27.1289 70.9216 36.1909 56.6614C40.7219 49.508 46.0024 42.8579 51.943 36.8238C57.9489 30.8293 64.6275 25.5489 71.8457 21.0878C79.0545 16.6718 86.675 12.9662 94.6 10.0229L96.0771 9.45811L97.5738 8.95024L100.567 7.93498C102.569 7.27921 104.599 6.71547 106.614 6.10414C108.654 5.58753 110.683 5.0208 112.733 4.54737L115.813 3.86268L117.353 3.52076L118.903 3.23047C135.452 -0.013432 152.401 -0.690216 169.156 1.2239C185.862 3.29957 202.401 8.19085 217.111 16.7633C231.897 25.3985 244.118 37.8118 252.523 52.7295C256.704 60.0861 260.158 67.8329 262.835 75.8599C265.501 83.8291 267.643 91.9641 269.247 100.213C270.88 108.43 272.083 116.705 273.028 124.99C273.972 133.275 274.659 141.61 274.92 149.982C275.436 166.697 274.272 183.699 269.685 200.048C265.175 216.508 256.87 231.683 245.437 244.354C234.154 257.037 220.554 267.449 205.367 275.033C175.166 290.217 139.613 294.606 106.685 286.553L103.608 285.777L100.557 284.897C98.5146 284.34 96.5228 283.616 94.5084 282.964C90.5249 281.531 86.5695 279.998 82.7423 278.184C75.0559 274.628 67.7246 270.351 60.8472 265.408C53.9728 260.48 47.5467 254.954 41.6436 248.896C35.7584 242.827 30.3975 236.271 25.6184 229.298C13.7748 212.067 5.88139 192.434 2.50167 171.801C-0.653759 151.105 0.985951 129.961 7.29436 109.999C13.5053 90.0366 23.9328 71.642 37.8709 56.0602C44.8319 48.2777 52.6524 41.309 61.1827 35.2876C69.7606 29.3511 78.9531 24.3561 88.6011 20.3889C107.869 12.5643 128.276 7.90776 149.031 6.59971C159.534 5.9827 170.071 6.9316 180.295 9.41524C190.508 12.0315 200.244 16.2431 209.144 21.8946C218 27.5179 226.057 34.309 233.099 42.0844C240.134 49.8254 246.201 58.3931 251.167 67.5989C256.16 76.7871 259.983 86.5638 262.549 96.7013C265.147 106.785 266.71 117.107 267.214 127.508C268.265 148.281 265.42 169.062 259.974 188.981C257.229 198.939 253.862 208.715 249.893 218.252C245.969 227.823 241.371 237.104 236.132 246.023C230.872 254.996 224.735 263.425 217.811 271.188C210.834 278.981 202.87 285.831 194.119 291.563C185.339 297.338 175.706 301.699 165.573 304.486C155.398 307.156 144.846 308.093 134.36 307.26C123.986 306.416 113.745 304.375 103.84 301.178C98.9028 299.623 94.0423 297.861 89.259 295.895C84.4828 293.911 79.7978 291.721 75.2039 289.323C65.9998 284.531 57.3435 278.753 49.3876 272.091C45.4303 268.725 41.686 265.116 38.1763 261.285C37.3209 260.308 36.4087 259.379 35.6007 258.361L33.154 255.325L31.9316 253.806L31.3206 253.047L30.76 252.25L28.5229 249.06C16.726 231.917 9.76293 211.792 7.21304 191.32C4.65446 170.767 6.34215 149.908 12.1716 130.034C12.5283 128.518 13.0778 127.06 13.551 125.579L15.007 121.145C16.0716 118.223 17.224 115.329 18.3556 112.43L20.2617 108.166L21.2152 106.034C21.5245 105.32 21.8527 104.614 22.2186 103.926L24.3398 99.7644L25.4006 97.6841C25.7552 96.9906 26.1674 96.3287 26.548 95.65C32.6283 84.7772 39.8771 74.6004 48.1656 65.3005C56.4156 56.0259 65.6952 47.7213 75.8249 40.5471C85.9112 33.4802 96.7765 27.5961 108.207 23.0109C118.146 19.0188 128.447 15.994 138.966 13.9785C147.599 12.3216 156.351 11.3682 165.138 11.128C177.599 10.7153 190.065 11.8034 202.266 14.3687C203.1 14.542 203.889 14.6681 204.611 14.8535L206.623 15.3702L209.729 16.1873C210.62 16.3921 211.496 16.6551 212.352 16.9747C212.538 17.135 209.649 16.5507 203.936 15.3298C195.412 13.7702 186.789 12.8169 178.131 12.4772C171.786 12.2738 165.434 12.4279 159.106 12.9388C157.366 13.0908 155.583 13.2127 153.768 13.4059C151.959 13.6506 150.112 13.9005 148.227 14.1556C147.286 14.2939 146.328 14.3864 145.374 14.5654L142.484 15.1033L139.538 15.6508C138.547 15.8359 137.543 16.0044 136.548 16.2634C115.482 20.7933 95.542 29.5129 77.9133 41.9036C60.0829 54.5788 44.9696 70.6944 33.464 89.3009C20.3156 110.3 12.2339 134.07 9.85843 158.732C7.66181 183.23 11.4868 208.428 22.0567 230.609C22.6592 232.021 23.4075 233.36 24.1291 234.712L26.3034 238.761L28.7187 242.67L29.9252 244.624C30.3435 245.265 30.8056 245.876 31.2438 246.503L33.9045 250.245C34.8028 251.483 35.8218 252.628 36.7737 253.825C38.682 256.216 40.7116 258.508 42.8545 260.692C51.4647 269.442 61.2794 276.917 72.0017 282.894C82.7291 288.896 94.0801 293.708 105.853 297.245C111.717 299.014 117.687 300.413 123.726 301.434C129.744 302.423 135.831 302.92 141.929 302.918C147.997 302.874 154.045 302.213 159.979 300.945C165.899 299.623 171.668 297.698 177.195 295.197C188.281 290.131 198.427 283.221 207.202 274.761C211.611 270.545 215.718 266.025 219.493 261.234C223.264 256.42 226.752 251.39 229.939 246.17C236.298 235.664 241.724 224.621 246.156 213.168C250.687 201.749 254.343 190.002 257.091 178.028C259.784 166.073 261.352 153.892 261.774 141.644L261.863 139.353L261.852 137.062L261.821 132.48C261.83 130.952 261.68 129.431 261.618 127.907C261.525 126.384 261.478 124.857 261.347 123.337C260.835 117.262 259.955 111.224 258.714 105.255C258.392 103.767 258.098 102.273 257.756 100.79L256.566 96.3835C256.169 94.9152 255.796 93.4379 255.309 92.0027L254.617 89.8357L253.857 87.6908C251.82 81.9706 249.351 76.4137 246.471 71.0681C243.297 65.1313 239.639 59.4665 235.534 54.1315C231.422 48.7566 226.854 43.7475 221.879 39.1601C216.905 34.5661 211.514 30.4442 205.778 26.8476C200.053 23.2754 193.972 20.3103 187.632 18.0003C184.48 16.8519 181.265 15.8799 178.004 15.0888C176.368 14.7379 174.744 14.326 173.092 14.0684C172.268 13.9277 171.45 13.7655 170.623 13.6413L168.138 13.2975C161.485 12.5145 154.775 12.3355 148.09 12.7627C141.415 13.1817 134.772 14.0063 128.197 15.2319C121.633 16.4324 115.168 17.9003 108.861 19.6908C98.7841 22.5086 89.007 26.3048 79.669 31.0252C70.3644 35.7585 61.6706 41.6068 53.7794 48.4412C45.8905 55.3112 38.8213 63.0692 32.7123 71.5611C29.6521 75.8072 26.8231 80.2152 24.2374 84.7658C21.6757 89.3338 19.3597 94.0352 17.2993 98.85C15.2277 103.662 13.4439 108.594 11.9572 113.618C10.4595 118.638 9.2408 123.737 8.30655 128.892C7.40385 134.051 6.80107 139.258 6.50124 144.486C6.18212 149.712 6.21208 154.954 6.59091 160.176C7.32168 170.638 9.35045 180.968 12.6305 190.928C15.8869 200.911 20.2746 210.488 25.708 219.474C36.5683 237.529 51.3728 252.894 69.013 264.417C77.7906 270.151 87.2549 274.759 97.1829 278.13C102.137 279.83 107.195 281.208 112.326 282.257C117.458 283.318 122.645 284.088 127.864 284.561C148.841 286.346 169.951 283.422 189.654 276.003C199.468 272.324 208.82 267.513 217.521 261.67C221.857 258.747 226.006 255.557 229.945 252.118C233.901 248.699 237.634 245.032 241.123 241.138C246.313 235.374 250.888 229.084 254.772 222.37C258.595 215.625 261.663 208.479 263.921 201.062C268.477 186.19 270.004 170.442 269.84 154.758C269.759 146.905 269.264 139.041 268.5 131.192C267.728 123.339 266.738 115.501 265.417 107.741C262.767 92.2421 258.769 76.9122 252.064 62.8168C248.753 55.7799 244.661 49.1377 239.865 43.0155C235.05 36.9427 229.47 31.5173 223.264 26.8739L220.91 25.1696C220.139 24.5822 219.338 24.0343 218.512 23.5282C216.86 22.5113 215.224 21.4682 213.561 20.4691L208.416 17.7348C206.683 16.8591 204.883 16.1142 203.12 15.296C195.943 12.2441 188.493 9.87963 180.87 8.23434C173.226 6.57797 165.453 5.58125 157.638 5.25515C149.815 4.89654 141.977 5.10884 134.185 5.89036C118.588 7.4218 103.32 11.3552 88.9247 17.5511C76.1574 23.0711 64.5494 30.9562 54.7128 40.7907C45.0071 50.6971 37.3561 62.5492 31.3983 75.1559C29.9155 78.3131 28.4827 81.5045 27.2535 84.7743L25.372 89.6646C24.7798 91.3072 24.2592 92.9757 23.6989 94.63L22.8715 97.1162C22.5999 97.9463 22.3883 98.7946 22.1436 99.633L20.7203 104.677C20.296 106.371 19.92 108.078 19.5168 109.778L18.9215 112.33C18.7411 113.184 18.598 114.046 18.4341 114.904L17.4791 120.058L16.7565 125.248L16.3979 127.844L16.1578 130.454L15.6834 135.673L15.454 140.908L15.3432 143.526L15.3532 146.145L15.3806 151.384L15.6506 156.616C15.7022 157.487 15.7257 158.361 15.8 159.231L16.0628 161.836C16.2471 163.572 16.3921 165.313 16.6076 167.045L17.3906 172.222C17.5329 173.083 17.6245 173.953 17.8083 174.806L18.3308 177.371C19.6774 184.22 21.5098 190.964 23.8141 197.553C25.0573 200.81 26.1938 204.113 27.6802 207.268L28.7352 209.659C29.0827 210.458 29.4301 211.258 29.8446 212.025L32.2231 216.682C32.9738 218.257 33.9303 219.721 34.7868 221.239L36.1047 223.498L36.763 224.628L37.48 225.721L40.3623 230.086L41.083 231.178L41.8631 232.228L43.4226 234.328C51.7383 245.559 61.6916 255.479 72.9503 263.757C74.3408 264.808 75.8199 265.735 77.2496 266.73C78.6909 267.711 80.1165 268.716 81.636 269.572L86.1239 272.252C87.6399 273.109 89.2085 273.87 90.748 274.684L93.067 275.888C93.8423 276.284 94.6538 276.605 95.4449 276.967L100.221 279.084C101.841 279.719 103.483 280.3 105.112 280.911L107.561 281.818C108.389 282.085 109.227 282.32 110.059 282.573L115.061 284.068L120.137 285.272C121.837 285.637 123.555 285.918 125.263 286.245C126.115 286.422 126.98 286.523 127.841 286.639L130.427 286.986C137.337 287.822 144.309 288.023 151.255 287.588C165.113 286.703 178.887 283.243 191.163 276.772C194.231 275.166 197.201 273.379 200.057 271.421C202.934 269.486 205.684 267.37 208.292 265.085C210.923 262.821 213.4 260.379 215.805 257.865C218.164 255.307 220.477 252.699 222.617 249.941C231.272 238.98 238.27 226.703 244.398 214.063C250.568 201.441 255.537 188.267 259.238 174.715C262.913 161.181 264.897 147.245 265.143 133.223C265.26 126.233 264.837 119.243 263.878 112.318C262.887 105.401 261.376 98.5691 259.358 91.8797C257.309 85.203 254.702 78.7106 251.564 72.4712L250.374 70.141L249.779 68.976L249.122 67.8457L246.484 63.3296L243.607 58.964C243.146 58.2233 242.606 57.5385 242.089 56.8384L240.527 54.7435L239.279 53.0748L237.938 51.4838L235.26 48.3045L232.398 45.3035L230.97 43.8045L229.455 42.397L226.422 39.5944C225.374 38.7059 224.291 37.8598 223.229 36.9911C222.166 36.1236 221.106 35.2527 219.98 34.4736L218.318 33.269L216.612 32.1305C207.529 26.1375 197.539 21.6505 187.026 18.8429C176.675 16.0739 165.998 14.7174 155.284 14.8102C139.552 14.9222 123.972 17.8907 109.301 23.5711C106.9 24.5024 104.532 25.4975 102.22 26.6085L98.7369 28.2268C98.1516 28.4853 97.5826 28.7749 97.0227 29.0827L95.3325 29.9805C86.397 34.68 77.9374 40.2334 70.0722 46.5631C62.3887 52.7414 55.2169 59.5304 48.6269 66.8638C42.1935 73.9937 36.2741 81.5711 30.9135 89.539C29.6726 91.327 28.6125 93.0614 27.5698 94.634C27.0542 95.4246 26.5586 96.1848 26.0831 96.9146L24.7832 99.0543C23.1205 101.781 21.7336 103.998 20.7393 105.766C18.7063 109.278 17.7265 110.709 17.8835 110.07C18.9916 107.264 20.2706 104.529 21.7132 101.879C23.006 99.5152 24.4943 96.571 26.5313 93.2521C28.4843 89.8826 30.9039 86.0946 33.7902 81.8881C34.838 80.4185 35.8873 78.9466 36.9384 77.4724C37.9676 75.9814 39.1303 74.5858 40.2228 73.1343C42.3939 70.218 44.7869 67.4644 47.1215 64.6487C48.3078 63.2568 49.5737 61.9309 50.7999 60.5668L52.6572 58.5338C53.2909 57.8691 53.9481 57.2257 54.593 56.5699C55.8923 55.2666 57.193 53.9616 58.4949 52.655C59.8508 51.4028 61.2083 50.1492 62.5672 48.8943C68.072 43.8863 73.9234 39.2732 80.0779 35.0893L82.388 33.4981C83.1614 32.9721 83.974 32.5046 84.7659 32.0048L89.5578 29.0588C92.8633 27.2793 96.1054 25.3618 99.5447 23.8114C113.217 17.1491 127.946 12.9227 143.071 11.3223C158.292 9.61572 173.698 10.7378 188.512 14.6319C200.82 17.8882 212.427 23.3714 222.76 30.8101C227.929 34.5881 232.731 38.8453 237.101 43.5252L238.756 45.2659L240.305 47.0997C241.324 48.3337 242.402 49.5224 243.37 50.7966L246.242 54.6452L246.956 55.6113L247.617 56.6126L248.939 58.6163L250.261 60.6211C250.711 61.2835 251.079 61.9953 251.492 62.6803L253.901 66.8321C255.335 69.6897 256.887 72.4938 258.121 75.4456L259.097 77.6363L259.584 78.7316L260.016 79.8498L261.739 84.323C262.296 85.8198 262.753 87.3517 263.264 88.8646L264.01 91.1407L264.648 93.4483C266.393 99.5867 267.697 105.842 268.55 112.166L269.132 116.909C269.285 118.494 269.379 120.085 269.505 121.671C269.56 122.465 269.631 123.258 269.672 124.052L269.74 126.433C269.772 128.019 269.86 129.606 269.842 131.192C269.867 131.333 269.891 131.468 269.922 131.644Z" fill="black" fill-opacity="0.05"/>
</svg>
