<svg width="76" height="76" viewBox="0 0 76 76" fill="none" xmlns="http://www.w3.org/2000/svg">
<g id="thoughts, dreams, clouds, thought bubble, 11">
<path id="Vector" d="M32.1879 39.8068L33.0306 40.28C33.3126 40.4361 33.607 40.5692 33.8945 40.7154L34.3283 40.9304C34.4742 40.9993 34.6241 41.0596 34.7718 41.1247L35.6618 41.5077C36.269 41.7265 36.8672 41.9757 37.4882 42.1532L37.9505 42.2982C38.1043 42.3477 38.2585 42.396 38.4156 42.4323L39.3534 42.6713C39.5091 42.7151 39.6675 42.7434 39.8256 42.7741L40.2997 42.8668L40.7739 42.9599C40.9321 42.9905 41.092 43.005 41.251 43.0285C41.5695 43.0699 41.8879 43.1173 42.2068 43.1548L43.1657 43.223C43.4768 43.2486 43.789 43.2573 44.101 43.2488C44.4099 43.2437 44.7194 43.223 45.0282 43.1925C45.6467 43.1279 46.2593 43.0156 46.8605 42.8567C48.1255 42.5352 49.3111 41.9576 50.344 41.1597C50.8347 40.7719 51.2642 40.3125 51.6183 39.797C51.9575 39.2943 52.2013 38.7334 52.3374 38.1424C52.3583 38.0612 52.3751 37.979 52.3878 37.8961L52.4276 37.6473L52.432 37.6201C52.4595 37.448 52.5356 37.2874 52.6511 37.157C52.7667 37.0266 52.917 36.9319 53.0845 36.8838C53.252 36.8358 53.4297 36.8365 53.5968 36.8859C53.7639 36.9352 53.9135 37.0311 54.0281 37.1624C54.8109 38.0598 55.9724 38.6016 57.2079 38.745C58.4614 38.8878 59.7296 38.6681 60.8619 38.1117C61.4153 37.8406 61.9218 37.4828 62.3624 37.052C62.5799 36.8377 62.7763 36.6031 62.9489 36.3513L63.0874 36.1649C63.1301 36.1003 63.1667 36.0313 63.2069 35.965C63.2831 35.8295 63.3714 35.7014 63.4396 35.5613C63.7215 34.9992 63.9297 34.4032 64.0592 33.7879C64.1833 33.1618 64.2349 32.5235 64.213 31.8856C64.164 30.5974 63.828 29.3364 63.2297 28.1946C62.9264 27.6316 62.5659 27.1013 62.1539 26.6122C61.7268 26.1227 61.2554 25.6736 60.7458 25.2707C58.6797 23.6613 55.9949 22.8151 53.3257 22.745L53.3204 22.7448C53.1144 22.7394 52.9152 22.6704 52.7501 22.5473C52.5849 22.4242 52.4619 22.253 52.3978 22.0572C52.3338 21.8614 52.3319 21.6506 52.3924 21.4537C52.4529 21.2568 52.5728 21.0834 52.7358 20.9573C53.2542 20.546 53.6099 19.964 53.7396 19.315C53.8152 18.9675 53.845 18.6116 53.8281 18.2564C53.809 17.8899 53.7484 17.5267 53.6477 17.1738C53.4524 16.4684 53.0861 15.8221 52.5812 15.2922L52.4879 15.1977L52.3813 15.1043L52.1696 14.916L51.9428 14.744C51.8686 14.6842 51.7909 14.6291 51.7099 14.579L51.4696 14.4226C51.3871 14.3736 51.3012 14.3291 51.2174 14.2816C51.0479 14.1875 50.8732 14.1028 50.6942 14.028C49.5922 13.5639 48.3494 13.3637 47.0914 13.3227C46.4577 13.3034 45.8233 13.3243 45.1923 13.3851C44.8767 13.3956 44.5637 13.4353 44.2496 13.4662L43.7817 13.533C43.7036 13.5428 43.6261 13.5572 43.5498 13.5762C43.4714 13.5843 43.3936 13.5965 43.3166 13.613C43.1613 13.6399 43.0063 13.668 42.8547 13.7068C42.7025 13.7435 42.5482 13.7757 42.3969 13.8155C42.0971 13.9001 41.802 14.0002 41.5126 14.1155C40.9402 14.3316 40.3931 14.6097 39.8812 14.9448C39.8184 14.9861 39.7522 15.0237 39.6919 15.0677L39.514 15.2027C39.3928 15.2883 39.2766 15.3808 39.1659 15.4796L38.8387 15.7755L38.5434 16.0966C38.1771 16.5386 37.8811 17.0344 37.6659 17.5666L37.6626 17.5748C37.5691 17.8059 37.3877 17.9905 37.1582 18.0879C36.9286 18.1852 36.6698 18.1874 36.4387 18.094C36.3445 18.0555 36.2571 18.0023 36.1795 17.9365C35.6196 17.457 35.0489 16.9933 34.4647 16.5515C33.8785 16.1135 33.2824 15.6928 32.6723 15.2995C32.0595 14.9115 31.4363 14.5452 30.7977 14.2163C30.1617 13.8918 29.5084 13.6025 28.8406 13.3499C28.1781 13.1066 27.5005 12.907 26.812 12.7521C26.1336 12.606 25.4443 12.5156 24.7511 12.4818C24.0611 12.4574 23.3702 12.4917 22.686 12.5845C22.007 12.6813 21.3383 12.8404 20.6885 13.0598C20.5239 13.1066 20.371 13.1812 20.2116 13.2398L19.9747 13.3327C19.8962 13.3648 19.8219 13.4049 19.7454 13.4404C19.5942 13.5151 19.4387 13.5823 19.2907 13.6618L18.8544 13.9119C18.2868 14.2541 17.7613 14.6619 17.2889 15.1268C17.1689 15.2391 17.0693 15.3693 16.9576 15.4887L16.7942 15.6716L16.6496 15.8688C16.558 16.0015 16.4419 16.1253 16.359 16.2578L16.2295 16.4544L16.1111 16.6594C15.7991 17.2234 15.5772 17.8327 15.4535 18.4652C15.3545 18.7821 15.2825 19.1068 15.2383 19.4359C15.1876 19.768 15.1818 20.1053 15.2212 20.4389C15.2761 21.1053 15.4352 21.759 15.6927 22.3761C16.2121 23.595 17.1406 24.585 18.2889 25.0568C18.4658 25.1294 18.6165 25.2541 18.721 25.4142C18.8255 25.5744 18.8789 25.7625 18.8742 25.9537C18.8694 26.1449 18.8067 26.3301 18.6944 26.4849C18.5821 26.6397 18.4254 26.7567 18.2451 26.8205L18.1913 26.8393C17.649 27.0295 17.1278 27.2752 16.636 27.5726C16.5155 27.6509 16.3887 27.7189 16.273 27.8043L15.9223 28.054L15.589 28.3254C15.4761 28.4136 15.3775 28.5179 15.2706 28.6125C14.3302 29.4375 13.6069 30.4809 13.1643 31.651L13.0221 32.0904L12.9161 32.539C12.8869 32.6885 12.8718 32.8378 12.8471 32.9878C12.8227 33.1375 12.8277 33.291 12.815 33.443C12.7985 34.0607 12.8761 34.6774 13.045 35.2717C13.123 35.5464 13.2152 35.8168 13.3212 36.0819C13.3778 36.2061 13.4348 36.3269 13.4871 36.4474C13.5361 36.5701 13.6081 36.6754 13.6642 36.7877C13.7745 37.0145 13.9159 37.205 14.0329 37.4026C14.0968 37.4968 14.166 37.5829 14.2291 37.6715C14.2888 37.7592 14.3532 37.8435 14.4221 37.9241C14.8533 38.4444 15.3419 38.9142 15.8786 39.3247C16.5112 39.7631 16.5087 39.9708 15.7633 39.8921C15.5363 39.8533 15.313 39.7957 15.0955 39.7199C14.9676 39.6706 14.8336 39.6076 14.6877 39.5408C14.6161 39.5056 14.5376 39.4746 14.4649 39.4306L14.2395 39.2935C13.4819 38.8148 12.8365 38.1783 12.3474 37.4274C11.5737 36.2662 11.1389 34.9123 11.0918 33.5177L11.0922 32.9789C11.1061 32.7991 11.1241 32.619 11.1413 32.439C11.1482 32.3495 11.1609 32.2605 11.1794 32.1726L11.2283 31.9094C11.2457 31.822 11.2595 31.7335 11.2805 31.6471L11.3505 31.3898C11.5312 30.7107 11.8043 30.0596 12.1622 29.4548C12.4644 28.9359 12.8178 28.4487 13.2172 28.0003C13.4078 27.7694 13.6281 27.5682 13.8361 27.3549C13.9454 27.2541 14.0595 27.1585 14.173 27.0626C14.2844 26.9641 14.4029 26.8747 14.5226 26.7871C15.4679 26.0727 16.5322 25.5314 17.6663 25.1883L17.5867 26.6407C16.3967 26.0743 15.4077 25.1586 14.7516 24.0156C14.5906 23.7399 14.4461 23.455 14.3187 23.1622C14.2526 23.0177 14.1981 22.8689 14.1378 22.7222C14.0868 22.5726 14.0318 22.424 13.9859 22.273C13.8025 21.6703 13.681 21.0506 13.6233 20.4233C13.5944 20.1102 13.5897 19.7967 13.567 19.4811C13.5556 19.1641 13.5605 18.8466 13.5817 18.5301C13.5972 18.2103 13.6458 17.893 13.7267 17.5832C13.8007 17.2701 13.8928 16.9615 14.0024 16.6589C14.2227 16.0471 14.523 15.4671 14.8953 14.9339C15.0753 14.6698 15.2724 14.4177 15.4855 14.1795L15.8041 13.8221C15.9168 13.7097 16.0341 13.6022 16.1493 13.4924C17.0737 12.629 18.1512 11.9458 19.3264 11.4781C20.4806 11.0132 21.6957 10.7172 22.9344 10.5992C23.0879 10.5787 23.2423 10.5702 23.3969 10.5635L23.8602 10.5401C24.1693 10.5325 24.4789 10.5414 24.7881 10.5448C25.0967 10.5693 25.4065 10.5803 25.7141 10.6177L26.1753 10.6787L26.4056 10.7102L26.6316 10.7531C27.8332 10.9755 29.0079 11.3243 30.1361 11.7939C31.49 12.3635 32.7855 13.0632 34.0043 13.883C35.1958 14.6847 36.3312 15.5668 37.4024 16.5233L35.9233 16.8914C36.0127 16.6997 36.1009 16.5104 36.188 16.3234C36.2308 16.23 36.2805 16.1399 36.3366 16.0539L36.4965 15.7933C37.1595 14.7758 38.044 13.9213 39.0839 13.294L39.2711 13.1748L39.4643 13.0693L39.8509 12.8593C40.1134 12.7328 40.3772 12.6076 40.6444 12.4958C40.9146 12.3942 41.1809 12.2763 41.456 12.194C41.5923 12.1484 41.7296 12.1055 41.8648 12.0559C42.0011 12.0107 42.1392 11.9735 42.2765 11.9321C42.8251 11.7701 43.383 11.6417 43.9472 11.5477C44.2289 11.5037 44.5115 11.4639 44.7947 11.4298C44.936 11.4088 45.079 11.4057 45.2211 11.3946C45.3637 11.3835 45.5053 11.3777 45.6467 11.3747C46.2148 11.3537 46.7836 11.3623 47.3508 11.4006C47.9249 11.4347 48.4962 11.5068 49.0609 11.6164C49.6354 11.7239 50.2002 11.8778 50.75 12.0763C51.3093 12.2811 51.8494 12.5349 52.3639 12.8348C52.8839 13.1482 53.3674 13.5184 53.8056 13.9387C54.2509 14.381 54.6261 14.8887 54.9182 15.4442C55.5084 16.5484 55.7689 17.7989 55.6687 19.0469C55.6134 19.6937 55.4381 20.3246 55.1519 20.9072C54.8532 21.5099 54.4233 22.0379 53.8939 22.4527L53.3663 20.854C54.6486 20.8837 55.9226 21.0694 57.16 21.407C59.0507 21.9205 60.8096 22.8327 62.3185 24.0824C63.0793 24.7215 63.7523 25.4584 64.3199 26.274C65.1683 27.5215 65.7332 28.9396 65.975 30.4287C66.2168 31.9177 66.1297 33.4417 65.7197 34.8935C65.4281 35.8751 64.9584 36.7946 64.334 37.6061C64.0223 38.0227 63.6623 38.4008 63.2616 38.7326C62.8659 39.0637 62.437 39.353 61.9819 39.5959C60.5053 40.3842 58.8264 40.7121 57.1617 40.5374C56.745 40.4944 56.3327 40.4157 55.9295 40.3021C55.5212 40.1908 55.1244 40.0411 54.7444 39.855C54.3597 39.6688 53.9943 39.445 53.6537 39.1869C53.313 38.9248 52.9986 38.6301 52.7151 38.307L54.1552 37.8708C54.0568 38.5805 53.8474 39.2702 53.5344 39.9147C53.2218 40.549 52.8176 41.1339 52.3349 41.6507C51.8652 42.1563 51.337 42.6043 50.7615 42.9852C50.1992 43.3612 49.603 43.6839 48.9807 43.9493C47.7508 44.4701 46.4493 44.802 45.1202 44.9337C44.7891 44.9645 44.4571 44.9882 44.1239 44.9944C43.9574 44.9987 43.7908 45.0008 43.6238 44.9962C43.4551 44.9967 43.2932 44.986 43.1317 44.9746L42.1599 44.9106C41.9974 44.9042 41.8375 44.8778 41.6768 44.8584L41.1951 44.7964C40.5499 44.7301 39.9195 44.5864 39.284 44.4711C38.9678 44.4068 38.6571 44.3197 38.3435 44.2449C38.0307 44.1669 37.7164 44.0944 37.4105 43.9932L36.4871 43.71C36.1802 43.6132 35.8812 43.4933 35.5781 43.386C34.9686 43.1788 34.3835 42.9099 33.7905 42.6619C32.617 42.1346 31.4817 41.526 30.3931 40.8404C29.8393 40.5124 29.3227 40.125 28.7943 39.7572C28.5337 39.5679 28.2866 39.3593 28.0322 39.1611L27.6535 38.86C27.5289 38.7576 27.4117 38.6455 27.2905 38.5387C26.0586 37.4779 24.9833 36.2478 24.0967 34.8851L25.1494 34.5446C25.1546 35.0266 25.093 35.5069 24.9664 35.9719C24.8399 36.4295 24.645 36.8653 24.3882 37.2646C23.887 38.0122 23.2128 38.6277 22.4228 39.059C20.9945 39.8355 19.3576 40.1415 17.7452 39.9335C17.378 39.8928 17.0217 39.7839 16.6945 39.6125C16.4929 39.4871 16.43 39.3856 16.4842 39.3193C16.5982 39.1777 17.1419 39.2208 18.1808 39.1382C19.5411 39.0398 20.8468 38.5633 21.9506 37.7624C22.4552 37.3884 22.8669 36.9032 23.1538 36.3445C23.2852 36.0788 23.3804 35.7968 23.4371 35.5059C23.4881 35.2088 23.5063 34.907 23.4912 34.6059C23.4812 34.3765 23.5446 34.1498 23.6721 33.9588C23.7996 33.7678 23.9847 33.6224 24.2004 33.5436C24.4161 33.4648 24.6513 33.4568 24.8719 33.5206C25.0925 33.5845 25.287 33.717 25.4273 33.8988L25.4766 33.9637L25.9772 34.621C26.8145 35.6665 27.7522 36.6273 28.777 37.4898C29.8344 38.3604 30.9628 39.1411 32.1502 39.8238C32.1624 39.8177 32.1738 39.8122 32.1879 39.8068Z" fill="#8B79CF"/>
<path id="Vector_2" d="M27.4021 47.2699C27.7633 47.3513 28.1189 47.4561 28.4665 47.5836C29.486 47.968 30.4239 48.541 31.2312 49.2727C31.5137 49.5273 31.7807 49.7986 32.0305 50.0854C32.3155 50.4141 32.5536 50.7807 32.7378 51.1748C32.8634 51.4367 32.9594 51.7118 33.024 51.995C33.0943 52.2868 33.127 52.5863 33.1215 52.8864C33.1192 53.0416 33.107 53.1965 33.0849 53.3502C33.0589 53.5076 33.0217 53.6631 32.9736 53.8153C32.9251 53.9704 32.8643 54.1215 32.7918 54.2669C32.7169 54.4117 32.6317 54.5509 32.5368 54.6834C32.1699 55.1697 31.6884 55.5577 31.1353 55.813C30.654 56.0388 30.1465 56.204 29.6244 56.305C28.1476 56.6144 26.6208 56.5949 25.1524 56.2479C24.6634 56.1288 24.1843 55.9724 23.7192 55.7799C23.1948 55.5697 22.7029 55.2862 22.2582 54.9377C22.0219 54.7339 21.8119 54.5014 21.6332 54.2457C21.4357 53.9789 21.2767 53.6858 21.1608 53.3748L22.1656 53.9642C21.6649 54.0417 21.1573 54.0654 20.6516 54.0349C20.1494 54.0014 19.652 53.9161 19.1673 53.7803C18.6833 53.6452 18.2152 53.4588 17.7708 53.2242C17.5479 53.1078 17.3319 52.9787 17.1237 52.8377L16.9604 52.7264C16.8822 52.6691 16.8085 52.606 16.7397 52.5376C16.6194 52.4171 16.5126 52.2836 16.4213 52.1398C16.2616 51.8832 16.138 51.6058 16.0542 51.3154C15.9749 51.0262 15.9379 50.727 15.9443 50.4271C15.9511 50.1321 16.0009 49.8397 16.0921 49.559C16.1795 49.2819 16.3057 49.0186 16.4671 48.777C16.7885 48.2982 17.228 47.9104 17.7431 47.6512C17.8603 47.5914 17.9806 47.5379 18.1034 47.4907C18.2195 47.4447 18.3387 47.4035 18.4582 47.3633C18.7026 47.2842 18.9527 47.2237 19.2063 47.1824C19.6089 47.1119 20.0207 47.1104 20.4238 47.1782C20.83 47.2454 21.2204 47.3868 21.5755 47.5953C21.8513 47.7529 22.085 47.9748 22.2566 48.2421C22.3165 48.3378 22.3636 48.4408 22.3968 48.5487C22.3892 48.6316 22.3875 48.7149 22.3918 48.7981C22.4095 49.0732 22.4616 49.2731 22.2238 49.2655C22.1464 49.259 22.0709 49.2389 22.0005 49.2062C21.9513 49.1848 21.9036 49.1602 21.8576 49.1326C21.84 49.1211 21.8205 49.1126 21.8 49.1077L21.7489 49.0894C21.6757 49.0613 21.6045 49.0283 21.5358 48.9906C21.4541 48.9566 21.3746 48.9174 21.2978 48.8732C21.0865 48.7686 20.8679 48.6795 20.6437 48.6065C20.4153 48.5385 20.1804 48.495 19.9428 48.4766C19.6564 48.4591 19.369 48.485 19.0903 48.5535C18.9447 48.5883 18.801 48.6305 18.6598 48.68C18.5881 48.7039 18.5177 48.7345 18.4464 48.7613C18.3769 48.7892 18.3269 48.8184 18.2653 48.8457C18.0365 48.9667 17.838 49.1381 17.685 49.3468C17.5319 49.5556 17.4282 49.7963 17.3816 50.051C17.3358 50.2946 17.3476 50.5456 17.416 50.784C17.4493 50.8999 17.4966 51.0113 17.5568 51.1158C17.609 51.2147 17.6754 51.3053 17.754 51.3848C17.7806 51.4112 17.8107 51.4339 17.8434 51.4523C17.8513 51.4557 17.8589 51.4598 17.8662 51.4643L17.9151 51.4925L18.0126 51.5487C18.0766 51.5876 18.1442 51.6208 18.2111 51.6546C18.2776 51.6891 18.3446 51.7226 18.4139 51.7516C18.6862 51.8755 18.9693 51.9741 19.2596 52.0461C19.581 52.1235 19.9083 52.1746 20.238 52.1986C20.5657 52.2245 20.8877 52.2338 21.2009 52.2503C21.4283 52.2611 21.6561 52.2542 21.8824 52.2299L21.9597 52.223C22.1431 52.2069 22.3267 52.2525 22.4812 52.3526C22.6357 52.4527 22.7524 52.6016 22.8126 52.7755L22.8511 52.8869C22.869 52.9228 22.8814 52.9608 22.9017 52.9967C22.9389 53.0734 22.9883 53.1435 23.0479 53.2045C23.0777 53.2381 23.1094 53.2699 23.1429 53.2998C23.1762 53.3323 23.2112 53.3628 23.2479 53.3914C23.2845 53.4225 23.323 53.4514 23.363 53.478C23.3982 53.5104 23.4407 53.5388 23.4799 53.5692C23.841 53.8199 24.2379 54.0146 24.6571 54.1468C25.5499 54.4478 26.4801 54.6229 27.4212 54.6673C27.8161 54.6884 28.2121 54.6782 28.6054 54.6367C28.9943 54.5971 29.3794 54.5263 29.757 54.4252C30.0938 54.3378 30.4151 54.1994 30.7099 54.0145C30.9496 53.8671 31.1429 53.6551 31.2678 53.4029C31.4796 52.9904 31.4428 52.375 31.1971 51.8384C31.1689 51.7703 31.1306 51.7068 31.0982 51.6404C31.0576 51.5792 31.025 51.5117 30.9802 51.4537C30.9397 51.393 30.8955 51.3347 30.8481 51.2792C30.8073 51.2265 30.7438 51.1569 30.6846 51.0945C30.4432 50.8378 30.1845 50.5979 29.9105 50.3765C28.8185 49.4804 27.4729 48.8859 26.0542 48.8293C24.9251 48.7883 23.8441 48.8939 22.7277 48.9335C22.6512 48.9457 22.5729 48.9371 22.5009 48.9084C22.4622 48.8961 22.4609 48.8466 22.4764 48.795C22.4803 48.7815 22.4854 48.7671 22.4913 48.7519L22.5007 48.7285L22.5058 48.7164L22.5084 48.7104L22.5097 48.7073L22.5104 48.7058L22.5107 48.705L22.5109 48.7046L22.5127 48.6944C22.5279 48.6554 22.5452 48.6103 22.5606 48.5607C22.577 48.509 22.5893 48.4562 22.5975 48.4027C22.607 48.3519 22.6046 48.2861 22.6121 48.263C22.6002 48.2482 22.6601 48.2122 22.7022 48.1805L22.8357 48.084C22.9261 48.0209 23.0148 47.9513 23.1102 47.8921C23.2036 47.8299 23.3023 47.7761 23.4051 47.7313C23.5052 47.6806 23.6113 47.6419 23.716 47.5985C23.925 47.5096 24.1445 47.4415 24.3653 47.3723C24.5896 47.3102 24.8172 47.2604 25.0469 47.2229C25.4327 47.1602 25.824 47.1393 26.2142 47.1605C26.6082 47.1839 27.0006 47.2302 27.3893 47.2991L27.4021 47.2699Z" fill="#8B79CF"/>
<path id="Vector_3" d="M12.862 59.9351C13.4913 59.9034 14.1218 59.9679 14.7316 60.1265C15.0461 60.2057 15.3501 60.3078 15.6623 60.3992C16.1155 60.524 16.5441 60.7255 16.9294 60.9948C17.1565 61.1572 17.3563 61.3547 17.5211 61.58C17.7118 61.8428 17.8385 62.1464 17.8913 62.4668C17.9438 62.7966 17.9146 63.1342 17.8062 63.4501C17.7087 63.7331 17.56 63.9957 17.3675 64.2249C17.0332 64.6155 16.6125 64.9228 16.1387 65.1224C15.8763 65.2366 15.6015 65.32 15.3198 65.3707C15.1827 65.3979 15.0462 65.4164 14.9102 65.4318C14.7596 65.4496 14.6079 65.457 14.4563 65.4539C14.3075 65.4504 14.1574 65.4393 14.0207 65.424C13.8968 65.4093 13.773 65.3923 13.6493 65.3729C13.4017 65.3343 13.1552 65.2817 12.9078 65.2235C12.3966 65.1086 11.9015 64.9314 11.4334 64.6958C11.3103 64.6344 11.1903 64.5668 11.074 64.4933C11.0151 64.4556 10.9558 64.4198 10.8983 64.3773L10.8118 64.3154L10.7687 64.2844L10.7138 64.2391C10.4142 63.9964 10.1947 63.6691 10.0839 63.2999C10.0222 63.0843 10.0058 62.8583 10.0355 62.636C10.0653 62.4138 10.1407 62.2 10.257 62.0083C10.3424 61.8539 10.4822 61.7368 10.6491 61.6797C10.7173 61.6589 10.7886 61.6501 10.8598 61.6537C10.9278 61.6596 10.9945 61.6756 11.0577 61.7014C11.1366 61.7383 11.2073 61.7905 11.2658 61.855C11.3243 61.9195 11.3694 61.995 11.3984 62.0771C11.4522 62.1927 11.4834 62.3176 11.4901 62.4449C11.4854 62.5517 11.4744 62.6582 11.4572 62.7637C11.4503 62.8245 11.4563 62.8861 11.4748 62.9445C11.4933 63.0029 11.5239 63.0567 11.5646 63.1025C11.5752 63.1142 11.5884 63.1238 11.5996 63.1355C11.6056 63.142 11.612 63.1481 11.6187 63.1539L11.6524 63.1786C11.697 63.2129 11.7433 63.2449 11.7911 63.2746C11.8885 63.3373 11.9906 63.3924 12.0964 63.4396C12.5508 63.6332 13.0409 63.7287 13.5346 63.7198C13.6748 63.718 13.8183 63.7065 13.9596 63.7009C14.03 63.6994 14.1006 63.6967 14.1694 63.7014C14.2247 63.7041 14.2799 63.7102 14.3345 63.7197C14.4156 63.7345 14.4981 63.7405 14.5805 63.7378C14.6162 63.7376 14.6692 63.7295 14.7163 63.7236C14.7643 63.7183 14.8119 63.7102 14.859 63.6994C15.0411 63.6601 15.2181 63.6005 15.3869 63.5216C15.6623 63.3975 15.9038 63.2089 16.091 62.9719C16.1339 62.9209 16.1635 62.8601 16.1773 62.795C16.1884 62.7457 16.1849 62.6944 16.1674 62.647C16.0894 62.4826 15.9654 62.3444 15.8103 62.2491C15.3736 61.9665 14.8825 61.7785 14.3687 61.6971C14.0986 61.6475 13.8247 61.621 13.55 61.618C13.2793 61.6189 13.0093 61.6449 12.7435 61.6958C12.6392 61.7189 12.5322 61.7304 12.4277 61.7476C12.3746 61.7545 12.3202 61.7583 12.2648 61.7607C12.2092 61.7663 12.1532 61.7684 12.0972 61.7668C11.9795 61.762 11.8625 61.7624 11.7358 61.7549L11.3354 61.7252C11.2709 61.7229 11.2078 61.705 11.1517 61.6729C11.0956 61.6408 11.0482 61.5956 11.0135 61.541C10.9788 61.4865 10.958 61.4244 10.9527 61.36C10.9474 61.2956 10.9579 61.2308 10.9833 61.1714L11.0461 61.0112C11.0713 60.9647 11.1019 60.9212 11.1373 60.8818C11.2032 60.8 11.2731 60.7185 11.3468 60.6387C11.4237 60.5651 11.504 60.4929 11.5877 60.422C11.673 60.357 11.7637 60.2994 11.8589 60.25C12.1741 60.0957 12.5146 59.9996 12.864 59.9665L12.862 59.9351Z" fill="#8B79CF"/>
</g>
</svg>
