<svg width="148" height="146" viewBox="0 0 148 146" fill="none" xmlns="http://www.w3.org/2000/svg">
<path d="M109.571 86.1805C108.321 83.6686 106.863 81.401 104.878 79.9722C103.459 78.9367 101.702 78.4569 99.9456 78.6257C99.4077 78.6826 98.8824 78.8241 98.3898 79.0448C97.8808 79.2727 97.427 79.6053 97.0591 80.0204L94.197 77.692C95.0703 76.6733 95.6626 75.4497 95.9166 74.1393C96.1707 72.8289 96.0779 71.476 95.6472 70.2113C95.3918 69.4912 95.0241 68.8148 94.5572 68.2066C93.6081 66.9649 92.3154 66.0205 90.8347 65.487C90.4727 65.3574 90.1012 65.2556 89.7234 65.1824C89.5375 65.1423 89.3493 65.1131 89.1599 65.0951L88.8787 65.0626L88.6261 65.0568C87.9226 65.0466 87.2243 65.1777 86.5738 65.4422C86.2571 65.567 85.9543 65.7238 85.6704 65.9101C85.5413 65.9995 85.4177 66.0963 85.3001 66.2L85.1314 66.3493C85.0865 66.4036 85.0411 66.4565 84.994 66.5081L84.9223 66.5846L84.8696 66.6659C84.8341 66.7193 84.7966 66.7714 84.7571 66.8222C84.7336 66.8767 84.7082 66.9295 84.6802 66.981L84.6374 67.0577L84.6148 67.1369C84.5411 67.3386 84.5056 67.5519 84.5103 67.7663L84.4917 67.9746C84.4478 68.4672 84.2201 68.9261 83.8528 69.2624C83.4854 69.5987 83.0045 69.7884 82.5033 69.7948C82.0022 69.8011 81.5165 69.6237 81.1404 69.2969C80.7644 68.97 80.5247 68.5171 80.468 68.0258C80.0337 64.263 77.3441 60.7441 73.884 58.9649C72.2002 58.0684 70.3021 57.6377 68.3905 57.7183C67.4762 57.7642 66.5754 57.9561 65.7233 58.2865C64.8564 58.6235 64.0445 59.0847 63.3139 59.6554C61.5566 61.0276 60.2506 62.8825 59.5606 64.9862C58.8809 67.0603 58.9198 69.2718 59.777 71.1074C60.0036 71.5927 60.0476 72.1418 59.9011 72.6562C59.7547 73.1706 59.4274 73.6168 58.9778 73.9149C58.5282 74.2129 57.9858 74.3433 57.4476 74.2827C56.9095 74.2221 56.4108 73.9745 56.0408 73.5842L56.0248 73.5664C54.3197 71.7578 52.1948 70.3848 49.8329 69.5655C47.5133 68.7748 45.0416 68.6562 42.8884 69.4034C40.8801 70.0689 39.1247 71.8273 38.2406 73.8877C37.7988 74.8808 37.5847 75.9578 37.6133 77.042C37.6394 78.034 37.9582 78.997 38.5307 79.8131L34.7908 82.3872C33.8983 81.1752 32.6386 80.2742 31.1934 79.8143C29.727 79.3195 28.1435 79.2724 26.6496 79.6792L26.4364 79.7347C26.3661 79.7548 26.3008 79.7858 26.2324 79.81L25.823 79.958L25.4349 80.1438L25.2385 80.2337C25.1751 80.2673 25.1162 80.3086 25.0542 80.345L24.6817 80.5645L24.33 80.8243L24.151 80.9522L23.9861 81.1004L23.6507 81.3944L23.3429 81.7242L23.1858 81.8878L23.0462 82.0683L22.761 82.4274L22.5089 82.8142L22.3803 83.0074L22.2713 83.2123L22.0478 83.6217L21.8626 84.0503L21.7674 84.2645L21.6939 84.486C21.3616 85.4531 21.1069 86.4445 20.9322 87.451C20.9098 87.5594 20.8879 87.6648 20.8667 87.7674C20.8471 87.8706 20.8383 87.9698 20.8211 88.0692C20.7924 88.2665 20.7468 88.4618 20.7158 88.6464C20.6921 88.8289 20.6625 89.0068 20.628 89.1801C20.6089 89.2687 20.5904 89.3542 20.5726 89.4367C20.5583 89.5201 20.5446 89.6006 20.5314 89.6783C20.361 90.6049 19.9185 90.927 19.1889 90.3248C19.089 90.2415 18.9941 90.1523 18.905 90.0578C18.8082 89.9414 18.7181 89.8198 18.635 89.6935C18.5435 89.5569 18.4502 89.4054 18.355 89.239C18.2638 89.0595 18.1824 88.8753 18.1112 88.6871C17.7309 87.7038 17.5652 86.6523 17.6248 85.6014C17.6931 83.9468 18.1438 82.3294 18.9425 80.8728C19.7413 79.4163 20.8669 78.1591 22.2334 77.1972C23.4919 76.3426 24.9216 75.7642 26.426 75.5011C27.8841 75.2451 29.3777 75.2576 30.8312 75.5381C32.2744 75.8112 33.6556 76.3397 34.908 77.0981C36.1863 77.8683 37.2889 78.8915 38.1462 80.1032L38.1558 80.1169C38.4266 80.5036 38.5306 80.9806 38.4449 81.4429C38.3592 81.9052 38.0908 82.315 37.6988 82.5822C37.5047 82.7144 37.2861 82.8077 37.0554 82.8566C36.8248 82.9056 36.5867 82.9092 36.3546 82.8673C35.8859 82.7828 35.4705 82.518 35.1997 82.1313C34.5112 81.158 34.0224 80.0612 33.7609 78.9027C33.5095 77.7742 33.4541 76.6117 33.597 75.4649C33.8219 73.8028 34.3768 72.2008 35.2299 70.7504C36.083 69.3 37.2176 68.0298 38.5688 67.0124C39.495 66.3188 40.526 65.7731 41.6241 65.3953L42.4308 65.1375C42.6998 65.0499 42.9786 65.0058 43.2529 64.9395C43.8028 64.8181 44.3596 64.7293 44.9203 64.6737C46.0324 64.5741 47.1522 64.5944 48.2598 64.7342C50.2625 64.978 52.2064 65.5663 54.0032 66.4722C55.7674 67.3369 57.363 68.502 58.7166 69.914L59.3152 70.5585L55.691 72.9336C55.3868 72.1936 55.1512 71.428 54.9869 70.6462C54.8351 69.873 54.7528 69.0881 54.7409 68.3007C54.7324 66.7617 54.9789 65.2316 55.4707 63.7711C56.4342 60.8957 58.2253 58.3592 60.6255 56.4711C61.2287 55.9961 61.872 55.5729 62.5484 55.206C63.2298 54.8299 63.9449 54.5164 64.6846 54.2693C65.4297 54.0167 66.1979 53.8355 66.9783 53.7283C67.7493 53.6216 68.5283 53.5816 69.3063 53.6089C72.3678 53.7497 75.3118 54.8137 77.7408 56.6574C79.4989 57.9642 80.9873 59.5908 82.1256 61.4495C83.2893 63.3308 84.0196 65.4415 84.2646 67.6321L80.6938 67.8613C80.686 67.092 80.8365 66.3291 81.1362 65.6187C81.4352 64.9476 81.8546 64.3352 82.3742 63.811C82.8554 63.3263 83.403 62.9104 84.001 62.5754C84.2869 62.4117 84.5819 62.2639 84.8846 62.1327C85.1882 62.0159 85.4898 61.8888 85.8019 61.8024C86.7377 61.5091 87.7175 61.3757 88.6989 61.408L89.1986 61.4337L89.6653 61.4921C90.8952 61.658 92.0877 62.0289 93.1917 62.5889C94.7284 63.3577 96.077 64.4472 97.1439 65.7819C98.2172 67.1304 98.949 68.7119 99.2787 70.3953C99.4386 71.225 99.5069 72.0693 99.4823 72.9135C99.449 73.7516 99.3268 74.584 99.1178 75.397C98.6996 77.0368 97.9071 78.5607 96.8009 79.8524L96.7961 79.858C96.5343 80.1697 96.1576 80.3661 95.749 80.4038C95.3405 80.4416 94.9334 80.3177 94.6174 80.0594C94.3014 79.8011 94.1024 79.4295 94.0642 79.0265C94.0259 78.6234 94.1515 78.2218 94.4133 77.9101C95.1726 77.0067 96.1447 76.3007 97.2446 75.8537C98.2902 75.4316 99.4077 75.2097 100.537 75.1999C102.724 75.1732 104.867 75.8063 106.678 77.0144C108.354 78.1895 109.784 79.6734 110.889 81.3841C111.934 82.9942 112.857 84.6778 113.652 86.4214L111.388 86.283C112.086 85.2608 112.968 84.3735 113.99 83.6654C115.316 82.7577 116.845 82.1787 118.446 81.9773C119.983 81.7765 121.548 81.9768 122.982 82.5584C124.249 83.0718 125.374 83.8736 126.267 84.8983C127.159 85.9229 127.793 87.1413 128.116 88.4539C128.228 88.858 128.233 89.2833 128.132 89.6901C128.048 89.9623 127.913 90.0872 127.75 90.0841C127.406 90.0767 127.058 89.5643 126.505 88.6723C125.701 87.3973 124.546 86.3747 123.175 85.7241C121.863 85.0962 120.377 84.9184 118.952 85.2191C117.12 85.5793 115.323 86.638 114.317 88.1493L114.302 88.172C114.09 88.4909 113.796 88.7485 113.449 88.9182C113.103 89.0879 112.717 89.1636 112.331 89.1376C111.945 89.1116 111.573 88.9848 111.253 88.7702C110.934 88.5557 110.677 88.261 110.511 87.9166C110.225 87.3232 109.937 86.7396 109.64 86.1749L109.571 86.1805Z" fill="#8B79CF"/>
</svg>
