<svg width="11" height="49" viewBox="0 0 11 49" fill="none" xmlns="http://www.w3.org/2000/svg">
<path d="M0.166667 6C0.166667 8.94552 2.55448 11.3333 5.5 11.3333C8.44552 11.3333 10.8333 8.94552 10.8333 6C10.8333 3.05448 8.44552 0.666667 5.5 0.666667C2.55448 0.666667 0.166667 3.05448 0.166667 6ZM4.5 8.15C4.5 8.70228 4.94772 9.15 5.5 9.15C6.05228 9.15 6.5 8.70228 6.5 8.15H4.5ZM6.5 12.45C6.5 11.8977 6.05228 11.45 5.5 11.45C4.94772 11.45 4.5 11.8977 4.5 12.45H6.5ZM4.5 16.75C4.5 17.3023 4.94772 17.75 5.5 17.75C6.05228 17.75 6.5 17.3023 6.5 16.75H4.5ZM6.5 21.05C6.5 20.4977 6.05228 20.05 5.5 20.05C4.94772 20.05 4.5 20.4977 4.5 21.05H6.5ZM4.5 25.35C4.5 25.9023 4.94772 26.35 5.5 26.35C6.05228 26.35 6.5 25.9023 6.5 25.35H4.5ZM6.5 29.65C6.5 29.0977 6.05228 28.65 5.5 28.65C4.94772 28.65 4.5 29.0977 4.5 29.65H6.5ZM4.5 33.95C4.5 34.5023 4.94772 34.95 5.5 34.95C6.05228 34.95 6.5 34.5023 6.5 33.95H4.5ZM6.5 38.25C6.5 37.6977 6.05228 37.25 5.5 37.25C4.94772 37.25 4.5 37.6977 4.5 38.25H6.5ZM4.5 42.55C4.5 43.1023 4.94772 43.55 5.5 43.55C6.05228 43.55 6.5 43.1023 6.5 42.55H4.5ZM6.5 46.85C6.5 46.2977 6.05228 45.85 5.5 45.85C4.94772 45.85 4.5 46.2977 4.5 46.85H6.5ZM4.5 6V8.15H6.5V6H4.5ZM4.5 12.45V16.75H6.5V12.45H4.5ZM4.5 21.05V25.35H6.5V21.05H4.5ZM4.5 29.65V33.95H6.5V29.65H4.5ZM4.5 38.25V42.55H6.5V38.25H4.5ZM4.5 46.85V49H6.5V46.85H4.5Z" fill="#8B79CF"/>
</svg>
