<svg width="15" height="87" viewBox="0 0 15 87" fill="none" xmlns="http://www.w3.org/2000/svg">
<path d="M8.20711 0.292893C7.81658 -0.0976311 7.18342 -0.0976311 6.79289 0.292893L0.428932 6.65685C0.0384078 7.04738 0.0384078 7.68054 0.428932 8.07107C0.819457 8.46159 1.45262 8.46159 1.84315 8.07107L7.5 2.41421L13.1569 8.07107C13.5474 8.46159 14.1805 8.46159 14.5711 8.07107C14.9616 7.68054 14.9616 7.04738 14.5711 6.65685L8.20711 0.292893ZM6.5 2.95455C6.5 3.50683 6.94772 3.95455 7.5 3.95455C8.05228 3.95455 8.5 3.50683 8.5 2.95455H6.5ZM8.5 6.86364C8.5 6.31135 8.05228 5.86364 7.5 5.86364C6.94772 5.86364 6.5 6.31135 6.5 6.86364H8.5ZM6.5 10.7727C6.5 11.325 6.94772 11.7727 7.5 11.7727C8.05228 11.7727 8.5 11.325 8.5 10.7727H6.5ZM8.5 14.6818C8.5 14.1295 8.05228 13.6818 7.5 13.6818C6.94772 13.6818 6.5 14.1295 6.5 14.6818H8.5ZM6.5 18.5909C6.5 19.1432 6.94772 19.5909 7.5 19.5909C8.05228 19.5909 8.5 19.1432 8.5 18.5909H6.5ZM8.5 22.5C8.5 21.9477 8.05228 21.5 7.5 21.5C6.94772 21.5 6.5 21.9477 6.5 22.5H8.5ZM6.5 26.4091C6.5 26.9614 6.94772 27.4091 7.5 27.4091C8.05228 27.4091 8.5 26.9614 8.5 26.4091H6.5ZM8.5 30.3182C8.5 29.7659 8.05228 29.3182 7.5 29.3182C6.94772 29.3182 6.5 29.7659 6.5 30.3182H8.5ZM6.5 34.2273C6.5 34.7796 6.94772 35.2273 7.5 35.2273C8.05228 35.2273 8.5 34.7796 8.5 34.2273H6.5ZM8.5 38.1364C8.5 37.5841 8.05228 37.1364 7.5 37.1364C6.94772 37.1364 6.5 37.5841 6.5 38.1364H8.5ZM6.5 42.0455C6.5 42.5977 6.94772 43.0455 7.5 43.0455C8.05228 43.0455 8.5 42.5977 8.5 42.0455H6.5ZM8.5 45.9546C8.5 45.4023 8.05228 44.9546 7.5 44.9546C6.94772 44.9546 6.5 45.4023 6.5 45.9546H8.5ZM6.5 49.8636C6.5 50.4159 6.94772 50.8636 7.5 50.8636C8.05228 50.8636 8.5 50.4159 8.5 49.8636H6.5ZM8.5 53.7727C8.5 53.2204 8.05228 52.7727 7.5 52.7727C6.94772 52.7727 6.5 53.2204 6.5 53.7727H8.5ZM6.5 57.6818C6.5 58.2341 6.94772 58.6818 7.5 58.6818C8.05228 58.6818 8.5 58.2341 8.5 57.6818H6.5ZM8.5 61.5909C8.5 61.0386 8.05228 60.5909 7.5 60.5909C6.94772 60.5909 6.5 61.0386 6.5 61.5909H8.5ZM6.5 65.5C6.5 66.0523 6.94772 66.5 7.5 66.5C8.05228 66.5 8.5 66.0523 8.5 65.5H6.5ZM8.5 69.4091C8.5 68.8568 8.05228 68.4091 7.5 68.4091C6.94772 68.4091 6.5 68.8568 6.5 69.4091H8.5ZM6.5 73.3182C6.5 73.8705 6.94772 74.3182 7.5 74.3182C8.05228 74.3182 8.5 73.8705 8.5 73.3182H6.5ZM8.5 77.2273C8.5 76.675 8.05228 76.2273 7.5 76.2273C6.94772 76.2273 6.5 76.675 6.5 77.2273H8.5ZM6.5 81.1364C6.5 81.6886 6.94772 82.1364 7.5 82.1364C8.05228 82.1364 8.5 81.6886 8.5 81.1364H6.5ZM8.5 85.0454C8.5 84.4932 8.05228 84.0454 7.5 84.0454C6.94772 84.0454 6.5 84.4932 6.5 85.0454H8.5ZM6.5 1V2.95455H8.5V1H6.5ZM6.5 6.86364V10.7727H8.5V6.86364H6.5ZM6.5 14.6818V18.5909H8.5V14.6818H6.5ZM6.5 22.5V26.4091H8.5V22.5H6.5ZM6.5 30.3182V34.2273H8.5V30.3182H6.5ZM6.5 38.1364V42.0455H8.5V38.1364H6.5ZM6.5 45.9546V49.8636H8.5V45.9546H6.5ZM6.5 53.7727V57.6818H8.5V53.7727H6.5ZM6.5 61.5909V65.5H8.5V61.5909H6.5ZM6.5 69.4091V73.3182H8.5V69.4091H6.5ZM6.5 77.2273V81.1364H8.5V77.2273H6.5ZM6.5 85.0454V87H8.5V85.0454H6.5Z" fill="#8B79CF"/>
</svg>
