<svg width="153" height="46" viewBox="0 0 153 46" fill="none" xmlns="http://www.w3.org/2000/svg">
<path d="M0.313218 37.3613C-0.0773064 37.7518 -0.0773064 38.3849 0.313218 38.7755L6.67718 45.1394C7.0677 45.53 7.70087 45.53 8.09139 45.1394C8.48192 44.7489 8.48192 44.1157 8.09139 43.7252L2.43454 38.0684L8.09139 32.4115C8.48192 32.021 8.48192 31.3878 8.09139 30.9973C7.70087 30.6068 7.0677 30.6068 6.67718 30.9973L0.313218 37.3613ZM152.546 8.44783C152.937 8.05731 152.937 7.42414 152.546 7.03362L146.182 0.669655C145.792 0.279131 145.159 0.279131 144.768 0.669655C144.378 1.06018 144.378 1.69334 144.768 2.08387L150.425 7.74072L144.768 13.3976C144.378 13.7881 144.378 14.4213 144.768 14.8118C145.159 15.2023 145.792 15.2023 146.182 14.8118L152.546 8.44783ZM77.4298 22.9045C77.4298 22.3523 76.9821 21.9045 76.4298 21.9045C75.8775 21.9045 75.4298 22.3523 75.4298 22.9045H77.4298ZM1.02032 39.0684H61.266V37.0684H1.02032V39.0684ZM91.5936 8.74072H151.839V6.74072H91.5936V8.74072ZM77.4298 22.9045C77.4298 15.0821 83.7711 8.74072 91.5936 8.74072V6.74072C82.6666 6.74072 75.4298 13.9775 75.4298 22.9045H77.4298ZM61.266 39.0684C70.193 39.0684 77.4298 31.8316 77.4298 22.9045H75.4298C75.4298 30.727 69.0884 37.0684 61.266 37.0684V39.0684Z" fill="#8B79CF"/>
</svg>
