<svg width="143" height="50" viewBox="0 0 143 50" fill="none" xmlns="http://www.w3.org/2000/svg">
<path d="M0.292893 7.29289C-0.0976311 7.68342 -0.0976311 8.31658 0.292893 8.70711L6.65685 15.0711C7.04738 15.4616 7.68054 15.4616 8.07107 15.0711C8.46159 14.6805 8.46159 14.0474 8.07107 13.6569L2.41421 8L8.07107 2.34315C8.46159 1.95262 8.46159 1.31946 8.07107 0.928932C7.68054 0.538408 7.04738 0.538408 6.65685 0.928932L0.292893 7.29289ZM142.531 42.9194C142.922 42.5289 142.922 41.8957 142.531 41.5052L136.167 35.1412C135.777 34.7507 135.144 34.7507 134.753 35.1412C134.362 35.5317 134.362 36.1649 134.753 36.5554L140.41 42.2123L134.753 47.8691C134.362 48.2597 134.362 48.8928 134.753 49.2833C135.144 49.6739 135.777 49.6739 136.167 49.2833L142.531 42.9194ZM70.412 25.1061C70.412 25.6584 70.8597 26.1061 71.412 26.1061C71.9643 26.1061 72.412 25.6584 72.412 25.1061H70.412ZM1 9H54.3059V7H1V9ZM88.5182 43.2123H141.824V41.2123H88.5182V43.2123ZM70.412 25.1061C70.412 35.1059 78.5184 43.2123 88.5182 43.2123V41.2123C79.623 41.2123 72.412 34.0013 72.412 25.1061H70.412ZM54.3059 9C63.2011 9 70.412 16.211 70.412 25.1061H72.412C72.412 15.1064 64.3056 7 54.3059 7V9Z" fill="#8B79CF"/>
</svg>
