<svg width="265" height="229" viewBox="0 0 265 229" fill="none" xmlns="http://www.w3.org/2000/svg">
<g opacity="0.05" clip-path="url(#clip0_918_1991)">
<path d="M35.985 224.054C102.525 149.999 172.033 78.7098 244.365 10.4026C248.709 6.32892 247.333 1.8915 241.686 0.436605C235.531 -1.16378 226.481 1.38228 221.919 5.74696C149.66 74.1269 80.1516 145.417 13.612 219.398C2.67896 231.619 29.7582 230.964 36.0574 223.981L35.985 224.054Z" fill="black"/>
<path d="M1.44809 22.769L237.631 214.378C242.627 218.452 250.664 217.07 256.167 214.669C258.918 213.505 268.62 207.468 263.624 203.394L27.3689 11.7846C22.373 7.7109 14.3361 9.09305 8.83333 11.4936C6.08197 12.6575 -3.62022 18.6953 1.37568 22.769H1.44809Z" fill="black"/>
</g>
<defs>
<clipPath id="clip0_918_1991">
<rect width="265" height="229" fill="white"/>
</clipPath>
</defs>
</svg>
