<svg width="34" height="37" viewBox="0 0 34 37" fill="none" xmlns="http://www.w3.org/2000/svg">
<g clip-path="url(#clip0_905_1006)">
<path d="M9.30157 25.9676C8.63172 24.5878 7.98053 23.1957 7.36665 21.779C7.06704 21.0979 6.78108 20.4132 6.49513 19.7285C6.19087 18.9755 5.95162 18.1099 5.44344 17.4701C5.01418 16.9336 4.28499 17.7366 4.09499 18.0656C3.67999 18.7845 3.48516 19.6419 3.61416 20.4785C3.74315 21.3151 4.16865 22.1381 4.48889 22.9234C4.78216 23.6354 5.08044 24.3388 5.38737 25.0472C6.00624 26.4553 6.64378 27.851 7.32729 29.2272C7.73779 30.0761 8.59652 29.4288 8.92152 28.8659C9.37652 28.0778 9.72805 26.8489 9.30157 25.9676Z" fill="#593113"/>
<path d="M19.3435 20.1141C18.1943 15.5246 17.2277 10.8789 16.4013 6.21018C16.3504 5.93831 16.1846 5.56547 15.8848 5.48475C15.585 5.40403 15.2564 5.65312 15.0695 5.85695C14.4463 6.53637 14.2194 7.62936 14.3544 8.51558C15.1024 13.2199 16.0677 17.8879 17.2193 22.5134C17.2875 22.7953 17.4296 23.1891 17.7604 23.2761C18.0912 23.3632 18.4248 23.1054 18.6081 22.888C19.1916 22.1972 19.5715 21.0193 19.3522 20.1191L19.3435 20.1141Z" fill="#593113"/>
<path d="M27.3633 21.6034C27.8162 19.8788 28.3175 18.1706 28.8757 16.4837C28.9411 16.2905 29.0065 16.0973 29.0718 15.9041C29.2239 15.4607 29.0228 16.049 29.1599 15.6316C29.3169 15.1796 29.474 14.7275 29.6397 14.2805C29.9411 13.4384 30.2512 12.6013 30.57 11.7692C30.8161 11.103 31.1703 9.82947 30.5278 9.26225C29.8853 8.69502 29.1994 9.82318 29.0063 10.2775C27.537 13.7824 26.3685 17.4264 25.4045 21.096C25.2494 21.6647 25.0471 23.0951 25.8586 23.3096C26.67 23.5241 27.2182 22.1547 27.3583 21.612L27.3633 21.6034Z" fill="#593113"/>
</g>
<defs>
<clipPath id="clip0_905_1006">
<rect width="29.05" height="22.06" fill="white" transform="translate(0 25.1582) rotate(-60)"/>
</clipPath>
</defs>
</svg>
