<svg width="19" height="18" viewBox="0 0 19 18" fill="none" xmlns="http://www.w3.org/2000/svg">
<path d="M9.5 15.75C13.2279 15.75 16.25 12.7279 16.25 9C16.25 5.27208 13.2279 2.25 9.5 2.25C5.77208 2.25 2.75 5.27208 2.75 9C2.75 12.7279 5.77208 15.75 9.5 15.75Z" stroke="#8B79CF" stroke-linecap="round" stroke-linejoin="round"/>
<path d="M3.13672 6.75H15.8633" stroke="#8B79CF" stroke-linecap="round" stroke-linejoin="round"/>
<path d="M3.13672 11.25H15.8633" stroke="#8B79CF" stroke-linecap="round" stroke-linejoin="round"/>
<path d="M9.5 15.567C11.0533 15.567 12.3125 12.6268 12.3125 8.9998C12.3125 5.37285 11.0533 2.43262 9.5 2.43262C7.9467 2.43262 6.6875 5.37285 6.6875 8.9998C6.6875 12.6268 7.9467 15.567 9.5 15.567Z" stroke="#8B79CF" stroke-linecap="round" stroke-linejoin="round"/>
</svg>
