<svg width="179" height="9" viewBox="0 0 179 9" fill="none" xmlns="http://www.w3.org/2000/svg">
<path d="M1 1.04737L1.44361 1.00929L1.88722 1.0002L2.33083 1.0202L2.77444 1.0691L3.21805 1.14647L3.66165 1.25162L4.10526 1.38361L4.54887 1.54128L4.99248 1.72323L5.43609 1.92784L5.8797 2.15329L6.32331 2.39759L6.76692 2.65856L7.21053 2.9339L7.65414 3.22115L8.09774 3.51776L8.54135 3.82111L8.98496 4.1285L9.42857 4.4372L9.87218 4.74447L10.3158 5.04759L10.7594 5.34386L11.203 5.63066L11.6466 5.90544L12.0902 6.16575L12.5338 6.4093L12.9774 6.63391L13.4211 6.8376L13.8647 7.01855L14.3083 7.17516L14.7519 7.30604L15.1955 7.41003L15.6391 7.48621L16.0827 7.53389L16.5263 7.55266L16.9699 7.54235L17.4135 7.50305L17.8571 7.43511L18.3008 7.33913L18.7444 7.21597L19.188 7.06671L19.6316 6.89269L20.0752 6.69544L20.5188 6.47672L20.9624 6.23847L21.406 5.98281L21.8496 5.71199L22.2932 5.42844L22.7368 5.13466L23.1805 4.83325L23.6241 4.52691L24.0677 4.21834L24.5113 3.91029L24.9549 3.60548L25.3985 3.30663L25.8421 3.01639L26.2857 2.73733L26.7293 2.47193L27.1729 2.22255L27.6165 1.9914L28.0602 1.78052L28.5038 1.5918L28.9474 1.42691L29.391 1.28731L29.8346 1.17424L30.2782 1.08871L30.7218 1.03147L31.1654 1.00303L31.609 1.00364L32.0526 1.03331L32.4962 1.09176L32.9398 1.17847L33.3835 1.29268L33.8271 1.43338L34.2707 1.59931L34.7143 1.789L35.1579 2.00077L35.6015 2.23273L36.0451 2.48284L36.4887 2.74886L36.9323 3.02845L37.3759 3.31911L37.8195 3.61826L38.2632 3.92326L38.7068 4.23139L39.1504 4.53992L39.594 4.84611L40.0376 5.14724L40.4812 5.44064L40.9248 5.72371L41.3684 5.99393L41.812 6.24891L42.2556 6.48637L42.6992 6.70422L43.1429 6.90052L43.5865 7.07353L44.0301 7.22171L44.4737 7.34374L44.9173 7.43856L45.3609 7.5053L45.8045 7.54338L46.2481 7.55246L46.6917 7.53246L47.1353 7.48356L47.5789 7.4062L48.0226 7.30105L48.4662 7.16906L48.9098 7.01138L49.3534 6.82944L49.797 6.62483L50.2406 6.39937L50.6842 6.15508L51.1278 5.8941L51.5714 5.61877L52.015 5.33152L52.4586 5.0349L52.9023 4.73155L53.3459 4.42417L53.7895 4.11547L54.2331 3.80819L54.6767 3.50507L55.1203 3.2088L55.5639 2.922L56.0075 2.64723L56.4511 2.38691L56.8947 2.14337L57.3383 1.91876L57.782 1.71507L58.2256 1.53412L58.6692 1.3775L59.1128 1.24662L59.5564 1.14263L60 1.06645L60.4436 1.01877L60.8872 1L61.3308 1.01031L61.7744 1.04961L62.218 1.11755L62.6617 1.21353L63.1053 1.3367L63.5489 1.48595L63.9925 1.65998L64.4361 1.85722L64.8797 2.07594L65.3233 2.31419L65.7669 2.56986L66.2105 2.84067L66.6541 3.12423L67.0977 3.41801L67.5414 3.71941L67.985 4.02575L68.4286 4.33432L68.8722 4.64238L69.3158 4.94718L69.7594 5.24603L70.203 5.53627L70.6466 5.81533L71.0902 6.08073L71.5338 6.33011L71.9774 6.56127L72.4211 6.77214L72.8647 6.96086L73.3083 7.12575L73.7519 7.26535L74.1955 7.37842L74.6391 7.46395L75.0827 7.5212L75.5263 7.54963L75.9699 7.54902L76.4135 7.51936L76.8571 7.46091L77.3008 7.37419L77.7444 7.25998L78.188 7.11929L78.6316 6.95336L79.0752 6.76367L79.5188 6.5519L79.9624 6.31993L80.406 6.06982L80.8496 5.8038L81.2932 5.52422L81.7368 5.23356L82.1805 4.9344L82.6241 4.62941L83.0677 4.32128L83.5113 4.01275L83.9549 3.70656L84.3985 3.40542L84.8421 3.11202L85.2857 2.82895L85.7293 2.55873L86.1729 2.30376L86.6165 2.06629L87.0602 1.84844L87.5038 1.65214L87.9474 1.47913L88.391 1.33095L88.8346 1.20892L89.2782 1.11411L89.7218 1.04737L90.1654 1.00929L90.609 1.0002L91.0526 1.0202L91.4962 1.0691L91.9398 1.14647L92.3835 1.25162L92.8271 1.38361L93.2707 1.54128L93.7143 1.72323L94.1579 1.92784L94.6015 2.15329L95.0451 2.39759L95.4887 2.65856L95.9323 2.9339L96.3759 3.22115L96.8195 3.51776L97.2632 3.82111L97.7068 4.1285L98.1504 4.4372L98.594 4.74447L99.0376 5.04759L99.4812 5.34386L99.9248 5.63066L100.368 5.90544L100.812 6.16575L101.256 6.4093L101.699 6.63391L102.143 6.8376L102.586 7.01855L103.03 7.17516L103.474 7.30604L103.917 7.41003L104.361 7.48621L104.805 7.53389L105.248 7.55266L105.692 7.54235L106.135 7.50305L106.579 7.43511L107.023 7.33913L107.466 7.21597L107.91 7.06671L108.353 6.89269L108.797 6.69544L109.241 6.47672L109.684 6.23847L110.128 5.98281L110.571 5.71199L111.015 5.42844L111.459 5.13466L111.902 4.83325L112.346 4.52691L112.789 4.21834L113.233 3.91029L113.677 3.60548L114.12 3.30663L114.564 3.01639L115.008 2.73733L115.451 2.47193L115.895 2.22255L116.338 1.9914L116.782 1.78052L117.226 1.5918L117.669 1.42691L118.113 1.28731L118.556 1.17424L119 1.08871L119.444 1.03147L119.887 1.00303L120.331 1.00364L120.774 1.03331L121.218 1.09176L121.662 1.17847L122.105 1.29268L122.549 1.43338L122.992 1.59931L123.436 1.789L123.88 2.00077L124.323 2.23273L124.767 2.48284L125.211 2.74886L125.654 3.02845L126.098 3.31911L126.541 3.61826L126.985 3.92326L127.429 4.23139L127.872 4.53992L128.316 4.84611L128.759 5.14724L129.203 5.44064L129.647 5.72371L130.09 5.99393L130.534 6.24891L130.977 6.48637L131.421 6.70422L131.865 6.90052L132.308 7.07353L132.752 7.22171L133.195 7.34374L133.639 7.43856L134.083 7.5053L134.526 7.54338L134.97 7.55246L135.414 7.53246L135.857 7.48356L136.301 7.4062L136.744 7.30105L137.188 7.16906L137.632 7.01138L138.075 6.82944L138.519 6.62483L138.962 6.39937L139.406 6.15508L139.85 5.8941L140.293 5.61877L140.737 5.33152L141.18 5.0349L141.624 4.73155L142.068 4.42417L142.511 4.11547L142.955 3.80819L143.398 3.50507L143.842 3.2088L144.286 2.922L144.729 2.64723L145.173 2.38691L145.617 2.14337L146.06 1.91876L146.504 1.71507L146.947 1.53412L147.391 1.3775L147.835 1.24662L148.278 1.14263L148.722 1.06645L149.165 1.01877L149.609 1L150.053 1.01031L150.496 1.04961L150.94 1.11755L151.383 1.21353L151.827 1.3367L152.271 1.48595L152.714 1.65998L153.158 1.85722L153.602 2.07594L154.045 2.31419L154.489 2.56986L154.932 2.84067L155.376 3.12423L155.82 3.41801L156.263 3.71941L156.707 4.02575L157.15 4.33432L157.594 4.64238L158.038 4.94718L158.481 5.24603L158.925 5.53627L159.368 5.81533L159.812 6.08073L160.256 6.33011L160.699 6.56127L161.143 6.77214L161.586 6.96086L162.03 7.12575L162.474 7.26535L162.917 7.37842L163.361 7.46395L163.805 7.5212L164.248 7.54963L164.692 7.54902L165.135 7.51936L165.579 7.46091L166.023 7.37419L166.466 7.25998L166.91 7.11929L167.353 6.95336L167.797 6.76367L168.241 6.5519L168.684 6.31993L169.128 6.06982L169.571 5.8038L170.015 5.52422L170.459 5.23356L170.902 4.9344L171.346 4.62941L171.789 4.32128L172.233 4.01275L172.677 3.70656L173.12 3.40542L173.564 3.11202L174.008 2.82895L174.451 2.55873L174.895 2.30376L175.338 2.06629L175.782 1.84844L176.226 1.65214L176.669 1.47913L177.113 1.33095L177.556 1.20892L178 1.11411" stroke="#74D153" stroke-miterlimit="10" stroke-linecap="round" stroke-linejoin="round"/>
</svg>
