<svg width="28" height="23" viewBox="0 0 28 23" fill="#FF0000" xmlns="http://www.w3.org/2000/svg">
<path d="M14.758 21.7174L24.915 11.9562C27.4104 9.54608 27.774 5.60546 25.4166 3.08684C24.8254 2.45214 24.1057 1.93994 23.3015 1.58155C22.4974 1.22316 21.6256 1.02611 20.7396 1.00242C19.8535 0.978738 18.9717 1.12892 18.1481 1.4438C17.3244 1.75868 16.5763 2.23163 15.9492 2.83377L14.0432 4.67755L12.4006 3.08684C9.89265 0.688728 5.79223 0.339254 3.17147 2.60481C2.51103 3.17299 1.97806 3.86461 1.60514 4.63742C1.23221 5.41023 1.02717 6.248 1.00252 7.09953C0.977875 7.95107 1.13415 8.7985 1.4618 9.59003C1.78944 10.3816 2.28158 11.1006 2.90814 11.7032L13.3285 21.7174C13.5187 21.8984 13.7755 22 14.0432 22C14.3109 22 14.5678 21.8984 14.758 21.7174V21.7174Z" stroke="black" stroke-width="1" stroke-linecap="round" stroke-linejoin="round"/>
</svg>
