<svg width="112" height="94" viewBox="0 0 112 94" fill="none" xmlns="http://www.w3.org/2000/svg">
<g clip-path="url(#clip0_938_651)">
<path d="M70.2461 6.408C77.6792 8.42307 84.5491 12.6157 89.7701 18.4061C92.3836 21.3005 95.2395 24.8805 95.4862 28.9525C95.7094 32.672 93.2668 35.496 90.3288 37.2908C86.8399 39.4221 82.654 40.353 78.6826 41.074C74.0287 41.9163 69.3023 42.2909 64.611 42.9189C62.3652 43.2195 60.0811 43.5173 57.8963 44.1221C56.1363 44.6027 54.4311 45.4596 53.6955 47.2661C52.3582 50.5303 54.8792 54.243 57.0387 56.4816C60.079 59.6419 63.7812 62.0523 67.5795 64.1366C71.3779 66.2209 75.2535 67.9071 79.3028 69.2277C87.0536 71.7614 96.7113 73.8016 104.033 69.1542C105.564 68.1829 107.036 66.7468 107.34 64.8484C107.645 62.9501 106.848 61.2956 105.668 59.9527C103.013 56.922 98.884 55.5839 95.1266 54.7312C90.9777 53.7954 86.7139 53.5685 82.4856 53.6204C78.2573 53.6723 74.0927 54.0149 69.9413 54.623C53.1317 57.0896 37.0924 64.048 23.6754 74.5325C22.0013 75.8423 20.3662 77.2058 18.7672 78.6112C18.3392 78.9859 17.5635 78.9908 17.0499 78.8244C16.6725 78.6993 16.1705 78.3378 16.5997 77.9435C23.1111 71.9974 30.4939 67.033 38.3396 63.0935C46.1854 59.154 54.6902 56.1751 63.3575 54.3896C72.0248 52.604 80.9673 51.7964 89.7799 52.5726C94.1803 52.9622 98.5587 53.8891 102.641 55.6685C105.845 57.0633 109.729 59.8808 109.936 63.7775C110.167 68.0521 105.671 70.5243 102.315 71.7561C98.0897 73.2994 93.4517 73.4138 89.0195 72.8789C80.2214 71.8236 71.4629 68.4335 63.813 63.8946C60.11 61.6957 56.4202 59.1411 53.6529 55.7555C51.6068 53.2567 49.7569 49.3552 51.5885 46.256C52.6269 44.5046 54.5447 43.5984 56.4082 43.0586C58.6219 42.4206 60.9498 42.0985 63.2276 41.7767C68.0565 41.0999 72.9377 40.7423 77.7418 39.8991C81.737 39.1974 86.1348 38.2622 89.4739 35.7988C90.8498 34.7849 92.0341 33.4947 92.6577 31.8584C93.4198 29.8656 93.1111 27.6605 92.3003 25.7151C90.6988 21.8766 87.6161 18.5545 84.5684 15.8444C81.5208 13.1343 78.1763 10.9886 74.5341 9.35645C72.759 8.56034 70.9203 7.92817 69.0513 7.41922C68.6594 7.31064 68.2798 6.96192 68.6269 6.58916C68.974 6.2164 69.7904 6.27131 70.2414 6.39002L70.2461 6.408Z" fill="#593113"/>
<path d="M32.7508 74.2797C27.3774 76.3928 21.9982 78.5074 16.4754 80.2178C16.0228 80.3557 13.8249 80.1699 14.6684 79.2764C16.9078 76.8963 19.0381 74.4104 21.04 71.8172C23.0419 69.2241 24.7746 66.4645 26.7006 63.8209C27.1425 63.2119 29.567 63.3063 29.1016 64.1839C27.538 67.1104 25.4541 69.8211 23.4303 72.4264C21.4065 75.0317 19.2271 77.569 16.9529 79.9838L15.1459 79.0423C20.4901 77.3915 25.7045 75.365 30.9083 73.322C31.4714 73.1039 32.2016 73.0213 32.756 73.3434C33.1766 73.5854 33.2921 74.0737 32.7583 74.2841L32.7508 74.2797Z" fill="#593113"/>
</g>
<defs>
<clipPath id="clip0_938_651">
<rect width="96.5016" height="71.7781" fill="white" transform="matrix(-0.967311 0.253594 0.253594 0.967311 93.347 0)"/>
</clipPath>
</defs>
</svg>
