<svg width="276" height="196" viewBox="0 0 276 196" fill="none" xmlns="http://www.w3.org/2000/svg">
<path d="M224.491 79.9852C229.355 80.8232 234.108 81.9573 238.698 83.3748C243.435 84.8033 247.862 86.7018 251.849 89.0135C252.86 89.6244 253.826 90.2728 254.741 90.9559L255.09 91.2107L255.449 91.5173L256.16 92.1367C256.618 92.5576 256.994 93.0252 257.399 93.4734C258.832 95.3384 259.55 97.4381 259.481 99.5622C259.412 101.686 258.558 103.76 257.005 105.576L256.725 105.915L256.402 106.235L255.748 106.87C255.277 107.272 254.777 107.661 254.258 108.032L253.429 108.551C253.159 108.729 252.87 108.891 252.566 109.038C252.003 109.331 251.421 109.604 250.819 109.855C241.731 113.723 231.814 116.355 221.899 118.414C215.277 119.802 208.586 120.915 201.911 121.941C198.572 122.455 195.232 122.929 191.893 123.425C188.55 123.907 185.196 124.353 181.848 124.819C168.434 126.611 154.92 128.103 141.318 129.162C127.699 130.247 114.007 130.806 100.303 130.837C86.5581 130.867 72.8282 130.198 59.2181 128.836C58.166 128.752 57.1256 128.606 56.0798 128.487L52.9473 128.11C50.8587 127.851 48.7742 127.619 46.6831 127.305C42.4017 126.727 38.1972 125.891 34.1153 124.807C32.0216 124.23 29.9938 123.539 28.0502 122.74C27.5614 122.536 27.0726 122.333 26.5994 122.107C26.1017 121.891 25.6227 121.653 25.165 121.396L23.7308 120.59C23.2846 120.295 22.8614 119.98 22.4302 119.673C21.9971 119.366 21.5996 119.035 21.2418 118.682C20.8509 118.348 20.4948 117.995 20.1764 117.624C19.8623 117.251 19.5423 116.881 19.2432 116.504L18.491 115.319C17.591 113.714 17.0818 112.011 16.9852 110.284C16.9423 108.562 17.3032 106.847 18.0532 105.208C18.8255 103.572 20.0037 102.047 21.5319 100.705L22.7246 99.7307C23.1607 99.4345 23.6133 99.1496 24.0609 98.8614C24.2817 98.7251 24.519 98.5592 24.7271 98.4487L25.3589 98.1017L26.6227 97.4079C27.4672 96.9475 28.3025 96.4778 29.1556 96.0257L31.7469 94.7007C35.1991 92.9308 38.7826 91.3 42.4009 89.715C44.2342 88.9523 46.0621 88.1813 47.9159 87.4451L50.7162 86.3663L52.1163 85.8272L53.5367 85.3163C61.094 82.5783 68.8801 80.1712 76.8513 78.1085C84.8105 76.0589 92.9192 74.3148 101.142 72.8837C117.569 70.0183 134.31 68.2731 151.078 67.2244C161.199 66.5809 171.445 66.3282 181.449 66.2166C191.033 66.1201 197.236 66.4735 201.081 66.9639C203.88 67.321 203.872 67.7161 201.475 68.065C199.079 68.414 194.293 68.7082 187.538 68.9386C178.988 69.2267 169.655 69.5109 160.841 69.9039C140.559 70.8108 120.356 72.6567 100.779 76.2685C81.2378 79.8806 62.2946 85.2526 45.2386 92.7982C40.5503 94.895 35.9264 97.1999 31.4917 99.626C30.3939 100.242 29.2986 100.857 28.2058 101.47C27.7058 101.771 27.3137 102.053 26.8563 102.338C26.4341 102.636 26.0797 102.976 25.6806 103.285C24.2307 104.598 23.2346 106.134 22.7722 107.769C22.4275 109.064 22.4102 110.393 22.721 111.692L22.8535 112.177C22.8864 112.34 22.94 112.5 23.0135 112.656L23.43 113.598L23.9962 114.496L24.1369 114.722L24.3173 114.932L24.6743 115.353C24.7945 115.493 24.9057 115.637 25.031 115.775L25.4591 116.162C25.7253 116.43 26.0212 116.683 26.3438 116.918L27.3213 117.618L28.4214 118.228C28.8056 118.445 29.2098 118.643 29.6313 118.822C30.0487 119.022 30.4929 119.197 30.9285 119.379C31.8062 119.739 32.7192 120.063 33.644 120.374C37.4855 121.567 41.4982 122.46 45.6114 123.037C49.7889 123.69 54.128 124.087 58.389 124.612C60.5318 124.844 62.6899 125.008 64.8396 125.209L68.067 125.498C69.1447 125.583 70.2271 125.641 71.3069 125.713L77.7888 126.126L84.2883 126.391C85.3718 126.429 86.4532 126.493 87.5381 126.512L90.7926 126.574C92.9625 126.606 95.1302 126.68 97.3007 126.681C101.642 126.675 105.981 126.71 110.32 126.597C136.132 126.15 161.954 123.47 187.432 119.986C198.794 118.394 210.175 116.821 221.156 114.536C226.63 113.411 231.998 112.039 237.227 110.429C238.51 110.004 239.816 109.608 241.07 109.146C241.701 108.92 242.338 108.702 242.964 108.47L244.823 107.751C245.449 107.517 246.055 107.263 246.658 107.004C247.256 106.749 247.886 106.492 248.457 106.238C248.958 106.007 249.433 105.75 249.881 105.47C250.111 105.335 250.33 105.191 250.537 105.039L251.135 104.567C252.668 103.246 253.582 101.617 253.747 99.9091C253.837 99.0618 253.729 98.2099 253.427 97.3877C253.392 97.2853 253.366 97.1804 253.324 97.0794L253.171 96.7819C253.062 96.5859 252.991 96.3781 252.858 96.19L252.464 95.6219C252.328 95.4345 252.174 95.2536 252.003 95.0804C251.681 94.7231 251.322 94.3836 250.927 94.0648C250.485 93.7302 250.006 93.3836 249.531 93.0521C248.54 92.3934 247.497 91.7757 246.407 91.2021C244.171 90.0411 241.798 89.0199 239.314 88.15C234.229 86.3971 228.902 85.0239 223.418 84.0525C217.824 83.0341 212.198 82.1045 206.54 81.264C197.512 79.9337 188.71 78.7399 180.23 77.7164C175.991 77.1975 171.833 76.7246 167.772 76.2796C163.713 75.8145 159.746 75.417 155.892 75.0323C152.345 74.6948 150.696 74.3619 150.979 74.1082C151.26 73.8655 153.478 73.6696 157.65 73.7286C169.842 73.897 182.008 74.5866 194.083 75.7939C199.117 76.2731 204.182 76.9341 209.246 77.6551C214.309 78.3821 219.368 79.1866 224.378 80.0435C224.413 80.0231 224.448 80.0048 224.491 79.9852Z" fill="#593113"/>
</svg>
