<svg width="15" height="15" viewBox="0 0 15 15" fill="none" xmlns="http://www.w3.org/2000/svg">
<path d="M10.7812 10.7812H4.08984L2.45508 1.79297C2.43595 1.68533 2.3798 1.58776 2.29634 1.51714C2.21289 1.44652 2.10737 1.4073 1.99805 1.40625H0.9375" stroke="white" stroke-linecap="round" stroke-linejoin="round"/>
<path d="M4.6875 13.125C5.33471 13.125 5.85938 12.6003 5.85938 11.9531C5.85938 11.3059 5.33471 10.7812 4.6875 10.7812C4.04029 10.7812 3.51562 11.3059 3.51562 11.9531C3.51562 12.6003 4.04029 13.125 4.6875 13.125Z" stroke="white" stroke-linecap="round" stroke-linejoin="round"/>
<path d="M10.7812 13.125C11.4285 13.125 11.9531 12.6003 11.9531 11.9531C11.9531 11.3059 11.4285 10.7812 10.7812 10.7812C10.134 10.7812 9.60938 11.3059 9.60938 11.9531C9.60938 12.6003 10.134 13.125 10.7812 13.125Z" stroke="white" stroke-linecap="round" stroke-linejoin="round"/>
<path d="M3.66211 8.4375H11.0215C11.2406 8.43817 11.4529 8.36158 11.6212 8.2212C11.7894 8.08081 11.9028 7.88562 11.9414 7.66992L12.6562 3.75H2.8125" stroke="white" stroke-linecap="round" stroke-linejoin="round"/>
</svg>
