<svg width="18" height="18" viewBox="0 0 18 18" fill="none" xmlns="http://www.w3.org/2000/svg">
<path d="M15.3916 5.4209C15.8623 5.89049 16.2357 6.44833 16.4905 7.06245C16.7453 7.67657 16.8765 8.33492 16.8765 8.9998C16.8765 9.66469 16.7453 10.323 16.4905 10.9372C16.2357 11.5513 15.8623 12.1091 15.3916 12.5787" stroke="#ffffff" stroke-linecap="round" stroke-linejoin="round"/>
<path d="M5.625 11.8125H2.25C2.10082 11.8125 1.95774 11.7532 1.85225 11.6477C1.74676 11.5423 1.6875 11.3992 1.6875 11.25V6.75C1.6875 6.60082 1.74676 6.45774 1.85225 6.35225C1.95774 6.24676 2.10082 6.1875 2.25 6.1875H5.625L10.6875 2.25V15.75L5.625 11.8125Z" stroke="#ffffff" stroke-linecap="round" stroke-linejoin="round"/>
<path d="M5.625 6.1875V11.8125" stroke="#ffffff" stroke-linecap="round" stroke-linejoin="round"/>
<path d="M13.4014 7.41113C13.6106 7.61952 13.7765 7.86717 13.8898 8.13986C14.0031 8.41255 14.0614 8.70492 14.0614 9.0002C14.0614 9.29547 14.0031 9.58784 13.8898 9.86053C13.7765 10.1332 13.6106 10.3809 13.4014 10.5893" stroke="#ffffff" stroke-linecap="round" stroke-linejoin="round"/>
</svg>
