<svg width="18" height="18" viewBox="0 0 18 18" fill="none" xmlns="http://www.w3.org/2000/svg">
<path d="M9 15.75C12.7279 15.75 15.75 12.7279 15.75 9C15.75 5.27208 12.7279 2.25 9 2.25C5.27208 2.25 2.25 5.27208 2.25 9C2.25 12.7279 5.27208 15.75 9 15.75Z" stroke="#8B79CF" stroke-linecap="round" stroke-linejoin="round"/>
<path d="M7.3125 9.5625H9.5625C10.0101 9.5625 10.4393 9.38471 10.7557 9.06824C11.0722 8.75178 11.25 8.32255 11.25 7.875C11.25 7.42745 11.0722 6.99822 10.7557 6.68176C10.4393 6.36529 10.0101 6.1875 9.5625 6.1875H7.3125V11.8125" stroke="#8B79CF" stroke-linecap="round" stroke-linejoin="round"/>
<path d="M9.6748 9.55566L11.2498 11.8127" stroke="#8B79CF" stroke-linecap="round" stroke-linejoin="round"/>
</svg>
