<svg width="169" height="12" viewBox="0 0 169 12" fill="none" xmlns="http://www.w3.org/2000/svg">
<path d="M56.2836 2.4393C64.2623 2.08764 72.2453 1.86156 80.2283 1.76109C88.2113 1.66061 96.1205 1.6941 104.064 1.85319C108.577 1.94529 113.094 2.07089 117.607 2.23835L118.219 0.521876C107.917 0.865171 97.6189 1.2922 87.321 1.80295C77.023 2.31371 66.725 2.9082 56.427 3.59479C50.646 3.97995 44.8694 4.38185 39.0884 4.81725C38.7497 4.84237 38.2415 5.00983 38.0504 5.64618C37.8723 6.24067 38.2024 6.55047 38.476 6.53373C49.2084 6.00622 59.9494 5.95599 70.6861 6.39138C81.4227 6.82678 92.1507 7.75619 102.866 9.16286C108.886 9.94993 114.901 10.8961 120.908 11.993C121.234 12.0516 121.772 11.7418 121.946 11.164C122.137 10.536 121.781 10.3183 121.52 10.2765C110.831 8.32556 100.116 6.8519 89.3927 5.86388C78.6691 4.87586 67.9281 4.38185 57.1914 4.37348C51.1585 4.37348 45.1257 4.51582 39.0928 4.81725L38.4804 6.53373C48.774 5.75503 59.072 5.06844 69.37 4.45721C79.668 3.85435 89.966 3.32685 100.264 2.89145C106.045 2.64863 111.83 2.42256 117.611 2.22998C117.95 2.22161 118.463 2.02903 118.649 1.40105C118.836 0.773068 118.493 0.521876 118.224 0.513503C110.236 0.22882 102.258 0.0529856 94.2746 0.0111203C86.2916 -0.0307449 78.3824 0.0446125 70.4385 0.253939C65.9258 0.371161 61.4087 0.530249 56.896 0.731203C56.5573 0.747949 56.0447 0.932156 55.858 1.56013C55.6799 2.15462 56.01 2.46442 56.2836 2.44768V2.4393Z" fill="#593113"/>
</svg>
