<svg width="128" height="17" viewBox="0 0 128 17" fill="none" xmlns="http://www.w3.org/2000/svg">
<g clip-path="url(#clip0_938_643)">
<path d="M32.0335 2.20634L68.8405 2.17584L105.481 2.14533C112.417 2.14533 119.354 2.125 126.298 2.13517L127.252 0C110.855 0.80323 94.4579 1.77931 78.0673 2.91806C61.6834 4.05682 45.3062 5.37859 28.9356 6.85287C19.7489 7.6866 10.5689 8.561 1.3888 9.49641C0.954834 9.53708 0.193724 9.94378 0.0334899 10.6352C-0.126744 11.3266 0.353957 11.5909 0.741189 11.6011L49.6726 13.36C65.983 13.9498 82.2935 14.5395 98.6039 15.119C107.811 15.4545 117.024 15.7799 126.231 16.1053L127.192 13.9701C121.41 14.2751 115.629 14.5801 109.84 14.8852C109.313 14.9157 108.518 15.1292 108.231 15.9019C107.958 16.6238 108.465 17.0203 108.892 17C114.674 16.7051 120.449 16.4103 126.231 16.1154C126.765 16.0849 127.566 15.8714 127.867 15.0885C128.167 14.3056 127.62 13.9904 127.192 13.9803C110.882 13.3804 94.5714 12.8008 78.2609 12.2213C61.9505 11.6417 45.64 11.052 29.3295 10.4725L1.70259 9.47608L1.05498 11.5807C17.3187 9.92345 33.5958 8.41866 49.8728 7.09689C66.1432 5.77512 82.4203 4.6262 98.7041 3.63995C107.897 3.08074 117.091 2.58254 126.284 2.13517C126.818 2.10466 127.62 1.89115 127.92 1.10825C128.22 0.325359 127.68 0 127.252 0C114.981 0.0305024 102.71 0.0305024 90.4453 0.0406699L53.8052 0.0711722L32.9882 0.0915072C32.4675 0.0915072 31.6596 0.355861 31.3725 1.10825C31.0854 1.86065 31.6129 2.20634 32.0335 2.20634V2.20634Z" fill="#8B79CF"/>
</g>
<defs>
<clipPath id="clip0_938_643">
<rect width="128" height="17" fill="white"/>
</clipPath>
</defs>
</svg>
