<svg width="699" height="141" viewBox="0 0 699 141" fill="none" xmlns="http://www.w3.org/2000/svg">
<path d="M11.43 55.42V108.66H0V31.53H11.43V43.03C17.73 34.86 27.83 29.41 38.09 29.41C57.13 29.41 68.56 42.57 68.56 61.17V108.66H57.13V62.23C57.13 50.13 50.83 40.6 36.91 40.6C24.76 40.6 15.67 48.46 11.42 55.42H11.43Z" fill="black"/>
<path d="M145.26 96.55C138.82 105.48 129.59 110.93 118.75 110.93C98.24 110.93 81.1 93.08 81.1 69.94C81.1 46.8 98.24 29.4 118.75 29.4C129.59 29.4 138.82 34.69 145.26 43.46V31.52H156.69V108.66H145.26V96.56V96.55ZM118.75 99.73C130.32 99.73 139.99 92.47 145.26 82.64V57.24C140.29 47.71 130.32 40.6 118.75 40.6C104.39 40.6 92.82 52.85 92.82 69.94C92.82 87.03 104.39 99.74 118.75 99.74V99.73Z" fill="black"/>
<path d="M180.66 55.42V108.66H169.23V31.53H180.66V42.88C186.96 34.86 196.92 29.41 207.17 29.41C219.92 29.41 229.15 35.31 233.99 44.99C240.29 35.77 251.56 29.41 263.14 29.41C282.04 29.41 293.47 42.57 293.47 61.17V108.66H282.05V62.23C282.05 50.13 275.75 40.6 261.98 40.6C250.26 40.6 241.47 48.02 237.07 54.66C237.36 56.78 237.51 58.89 237.51 61.17V108.66H226.09V62.23C226.09 50.13 219.79 40.6 206.02 40.6C194.01 40.6 184.92 48.46 180.68 55.42H180.66Z" fill="black"/>
<path d="M345.11 110.93C322.84 110.93 306 93.53 306 69.49C306 46.96 323.87 29.41 344.82 29.41C367.23 29.41 382.33 48.16 382.33 71.76H317.43C318.46 88.85 329.59 99.74 345.12 99.74C354.64 99.74 365.19 94.45 369.44 84.31H380.87C375.74 101.85 360.36 110.93 345.12 110.93H345.11ZM318.3 61.47H369.28C366.79 48.76 358.44 40.6 344.81 40.6C331.18 40.6 321.37 48.61 318.3 61.47Z" fill="black"/>
<path d="M579.77 110.93C557.5 110.93 540.66 93.53 540.66 69.49C540.66 46.96 558.53 29.41 579.48 29.41C601.89 29.41 616.99 48.16 616.99 71.76H552.09C553.12 88.85 564.25 99.74 579.78 99.74C589.3 99.74 599.85 94.45 604.1 84.31H615.53C610.4 101.85 595.02 110.93 579.78 110.93H579.77ZM552.96 61.47H603.94C601.45 48.76 593.1 40.6 579.47 40.6C565.84 40.6 556.03 48.61 552.96 61.47Z" fill="black"/>
<path d="M640.95 55.42V108.66H629.52V31.53H640.95V43.03C647.25 34.86 657.35 29.41 667.61 29.41C686.65 29.41 698.08 42.57 698.08 61.17V108.66H686.65V62.23C686.65 50.13 680.35 40.6 666.43 40.6C654.28 40.6 645.19 48.46 640.94 55.42H640.95Z" fill="black"/>
<path d="M476.67 140.33H446.31V127.81C441.55 126.57 436.98 124.74 432.66 122.36L424.03 131.4L402.06 110.45L410.61 101.49C408.28 97.76 406.39 93.8 404.94 89.66L392.66 90.59L390.38 60.31L402.5 59.4C403.47 53.89 405.19 48.58 407.65 43.56L398.54 35.66L418.44 12.72L427.47 20.55C433.2 16.59 439.62 13.64 446.31 11.88V0H476.67V11.89C481.57 13.17 486.27 15.07 490.71 17.56L498.94 8.93L520.9 29.9L512.59 38.61C514.92 42.41 516.81 46.45 518.24 50.68L530.31 49.77L532.59 80.05L520.35 80.97C519.33 86.42 517.57 91.66 515.09 96.6L524.42 104.7L504.53 127.63L495.1 119.45C489.47 123.27 483.2 126.12 476.66 127.83V140.35L476.67 140.33ZM454.67 131.97H468.31V121.06L471.67 120.39C479.28 118.87 486.59 115.55 492.81 110.78L495.52 108.71L503.71 115.82L512.65 105.51L504.51 98.45L506.22 95.46C509.59 89.6 511.74 83.22 512.61 76.48L513.04 73.1L523.64 72.3L522.62 58.7L512.12 59.49L511.21 56.17C509.67 50.55 507.2 45.27 503.87 40.48L501.92 37.68L509.1 30.15L499.23 20.73L492.09 28.22L489.19 26.37C483.79 22.92 477.9 20.54 471.68 19.3L468.32 18.63V8.36H454.68V18.64L451.32 19.31C443.56 20.86 436.13 24.28 429.83 29.19L427.12 31.3L419.29 24.51L410.35 34.82L418.23 41.65L416.56 44.62C413.22 50.56 411.12 57.01 410.33 63.8L409.93 67.23L399.37 68.02L400.39 81.62L411.03 80.82L411.97 84.09C413.56 89.62 416.05 94.83 419.39 99.55L421.37 102.36L413.91 110.18L423.78 119.59L431.28 111.73L434.17 113.55C439.46 116.87 445.24 119.18 451.34 120.4L454.7 121.07V131.98L454.67 131.97Z" fill="black"> <animateTransform attributeName="transform" dur="5s" type="rotate" from="0 463 70.165" to="360 463 70.165" repeatCount="indefinite"/>
  </path>
<path d="M452.93 80.72V70.37H501.84C501.11 96.08 481.67 110.3 461.08 110.3C440.49 110.3 422.3 92.11 422.3 71.21C422.3 46.12 441.53 30.03 461.08 30.03C475.92 30.03 488.68 37.03 496.51 50.94H483.34C476.76 43.41 470.17 40.38 461.6 40.38C446.55 40.38 433.59 54.59 433.59 69.86C433.59 86.17 446.45 99.96 462.02 99.96C474.25 99.96 484.07 93.17 488.99 80.73H452.93V80.72Z" fill="black"/>
</svg>